<?xml version="1.0" encoding="utf-8"?>
<!-- Generator: Adobe Illustrator 16.0.0, SVG Export Plug-In . SVG Version: 6.00 Build 0)  -->
<!DOCTYPE svg PUBLIC "-//W3C//DTD SVG 1.1//EN" "http://www.w3.org/Graphics/SVG/1.1/DTD/svg11.dtd">
<svg version="1.1" id="Layer_1" xmlns="http://www.w3.org/2000/svg" xmlns:xlink="http://www.w3.org/1999/xlink" x="0px" y="0px" preserveAspectRatio="xMidyMid meet" viewBox="0 0 150 49.481" enable-background="new 0 0 150 49.481" xml:space="preserve">
<path fill="#5D5D5D" d="M146.439,2.146c-21.367,18.235-47.063,30.086-72.011,42.523c-0.263,0.132-0.455,0.299-0.612,0.48
	c-11.308-3.277-22.001-14.827-31.755-21.256C29.372,15.529,16.143,7.99,3.044,0.297c-2.273-1.336-4.325,2.191-2.06,3.522
	c13.109,7.7,26.242,15.347,39.017,23.597c10.776,6.959,21.114,18.971,33.895,22.003c1.11,0.263,1.915-0.343,2.293-1.146
	c0.1-0.034,0.197-0.03,0.299-0.082c25.288-12.607,51.18-24.68,72.836-43.161C151.328,3.32,148.427,0.448,146.439,2.146z"/>
</svg>
