<?xml version="1.0" encoding="utf-8"?>
<!-- Generator: Adobe Illustrator 16.0.0, SVG Export Plug-In . SVG Version: 6.00 Build 0)  -->
<!DOCTYPE svg PUBLIC "-//W3C//DTD SVG 1.1//EN" "http://www.w3.org/Graphics/SVG/1.1/DTD/svg11.dtd">
<svg version="1.1" id="Layer_1" xmlns="http://www.w3.org/2000/svg" xmlns:xlink="http://www.w3.org/1999/xlink" x="0px" y="0px" preserveAspectRatio="xMidyMid meet" viewBox="0 0 180 200" enable-background="new 0 0 180 200" xml:space="preserve">
<path fill="#FF6633" d="M153.109,147.187c-8.114,1.378-14.926-1.898-21.445-6.091c-3.392-2.182-6.824-4.672-11.053-3.182
	c-3.473,1.226-6.082,5.545-8.55,7.997c-5.64,5.606-11.559,6.381-19.311,4.36c-1.227-0.321-1.747,1.474-0.523,1.792
	c4.37,1.14,10.193,2.268,14.465,0.183c4.488-2.193,7.938-5.969,11.116-9.601c3.59-4.101,7.537-3.399,11.677-0.736
	c2.685,1.727,5.278,3.431,8.193,4.805c5.119,2.416,10.346,3.218,15.954,2.266C154.881,148.768,154.35,146.975,153.109,147.187z"/>
<path fill="#FF6633" d="M93.784,153.64c-0.246-0.395-0.92-0.643-1.348-0.332c-1.41,1.022-2.93,1.914-4.208,3.088
	c-0.912,0.837,0.482,2.151,1.393,1.315c1.16-1.064,2.532-1.872,3.81-2.798C93.855,154.605,94.082,154.121,93.784,153.64z"/>
<path fill="#FF6633" d="M97.336,154.148c-3.747,2.716-7.27,5.702-11.137,8.271c-1.03,0.684-0.047,2.297,0.995,1.605
	c3.869-2.569,7.388-5.553,11.137-8.271C99.324,155.035,98.345,153.417,97.336,154.148z"/>
<path fill="#FF6633" d="M103.227,154.154c-6.323,5.595-13.342,10.394-20.048,15.558c-0.985,0.759,0.417,2.065,1.393,1.315
	c6.706-5.165,13.724-9.964,20.047-15.559C105.547,154.647,104.152,153.334,103.227,154.154z"/>
<path fill="#FF6633" d="M125.5,142.38c-13.979,11.626-28.345,22.82-42.914,33.778c-0.994,0.747,0.41,2.054,1.393,1.315
	c14.569-10.959,28.936-22.153,42.914-33.779C127.848,142.901,126.449,141.591,125.5,142.38z"/>
<path fill="#FF6633" d="M130.103,145.183c-7.838,6.675-15.591,13.046-24.005,19.11c-3.97,2.859-8.017,5.646-11.861,8.657
	c-3.575,2.801-7.598,5.357-10.91,8.394c-0.912,0.837,0.482,2.15,1.393,1.315c2.912-2.672,6.569-4.817,9.645-7.364
	c4.522-3.744,9.469-7.05,14.249-10.494c8.023-5.78,15.406-11.937,22.883-18.303C132.441,145.694,131.044,144.382,130.103,145.183z"
	/>
<path fill="#FF6633" d="M135.894,147.707c-7.362,7.089-16.007,13.065-23.978,19.532c-4.341,3.519-9.136,6.542-13.881,9.548
	c-3.901,2.474-8.167,4.417-11.59,7.501c-0.92,0.83,0.475,2.142,1.393,1.315c3.667-3.303,8.443-5.468,12.634-8.126
	c4.42-2.799,8.731-5.726,12.837-8.924c8.067-6.286,16.65-12.478,23.977-19.532C138.178,148.166,136.785,146.849,135.894,147.707z"/>
<path fill="#FF6633" d="M141.685,151.07c-8.946,7.093-17.611,14.476-27.234,20.756c-4.071,2.657-8.128,5.312-12.124,8.066
	c-3.008,2.072-6.163,3.563-8.462,6.406c-0.771,0.954,0.942,1.878,1.701,0.939c2.797-3.462,7.744-5.763,11.458-8.305
	c4.146-2.837,8.444-5.473,12.613-8.276c8.24-5.544,15.701-12.136,23.44-18.271C144.052,151.614,142.651,150.305,141.685,151.07z"/>
<path fill="#FF6633" d="M147.774,150.931c-8.249,7.386-17.552,13.615-26.616,20.059c-3.912,2.78-7.592,5.847-11.578,8.525
	c-2.688,1.807-5.358,3.669-7.102,6.363c-0.664,1.026,1.041,1.959,1.701,0.938c2.219-3.43,6.135-5.425,9.447-7.796
	c4.352-3.113,8.533-6.444,12.919-9.528c7.768-5.462,15.586-10.946,22.622-17.246C150.09,151.418,148.695,150.106,147.774,150.931z"
	/>
<path fill="#FF6633" d="M147.626,158.499c-5.262,5.331-12.816,9.278-19.112,13.456c-5.885,3.904-12.605,7.664-17.567,12.614
	c-0.871,0.87,0.52,2.187,1.394,1.314c5.616-5.603,13.498-9.882,20.163-14.312c5.523-3.671,11.885-7.064,16.516-11.758
	C149.882,158.937,148.493,157.619,147.626,158.499z"/>
<path fill="#FF6633" d="M150.201,162.698c-5.341,2.959-9.991,7.184-15.078,10.545c-6.291,4.159-12.34,8.622-18.779,12.583
	c-1.059,0.651-0.072,2.262,0.995,1.605c5.94-3.655,11.584-7.699,17.332-11.61c2.738-1.863,5.608-3.554,8.286-5.491
	c2.774-2.009,5.201-4.345,8.238-6.026C152.29,163.698,151.298,162.09,150.201,162.698z"/>
<path fill="#FF6633" d="M152.823,165.367c-4.427,3.737-9.539,6.749-14.273,10.131c-4.398,3.143-8.73,6.365-13.147,9.486
	c-1.003,0.709-0.023,2.324,0.995,1.605c4.904-3.466,9.722-7.039,14.606-10.529c4.396-3.142,9.095-5.903,13.212-9.38
	C155.164,165.88,153.766,164.569,152.823,165.367z"/>
<path fill="#FF6633" d="M157.426,166.208c-8.431,6.771-17.678,12.697-25.838,19.763c-0.938,0.812,0.458,2.124,1.394,1.315
	c8.156-7.062,17.411-12.994,25.837-19.764C159.788,166.744,158.387,165.435,157.426,166.208z"/>
<path fill="#FF6633" d="M162.475,167.049c-3.151,3.325-7.306,5.573-10.817,8.535c-4.412,3.723-9.134,7.116-13.93,10.38
	c-1.021,0.695-0.039,2.308,0.994,1.605c4.459-3.033,8.792-6.205,12.982-9.565c3.998-3.204,8.654-5.938,12.163-9.642
	C164.712,167.472,163.323,166.154,162.475,167.049z"/>
<path fill="#FF6633" d="M165.496,171.109c-3.525,2.333-6.464,5.315-10.023,7.628c-3.777,2.452-7.67,4.61-10.965,7.654
	c-0.91,0.84,0.485,2.153,1.393,1.314c3.163-2.921,6.903-5.062,10.565-7.363c3.605-2.265,6.498-5.293,10.024-7.629
	C167.521,172.031,166.538,170.417,165.496,171.109z"/>
<path fill="#FF6633" d="M166.781,175.038c-2.229,2.429-5.362,3.882-8.05,5.802c-2.803,2.003-5.569,4.032-8.53,5.826
	c-1.065,0.646-0.078,2.255,0.994,1.605c3.288-1.992,6.351-4.269,9.464-6.492c2.543-1.817,5.395-3.117,7.516-5.427
	C169.002,175.451,167.616,174.13,166.781,175.038z"/>
<path fill="#FF6633" d="M166.683,179.797c-3.83,1.905-6.74,4.997-10.394,7.148c-1.075,0.632-0.088,2.241,0.994,1.604
	c3.651-2.149,6.568-5.244,10.395-7.147C168.802,180.845,167.806,179.24,166.683,179.797z"/>
<path fill="#FF6633" d="M166.25,185.038c-0.246-0.397-0.92-0.643-1.349-0.334c-1.235,0.889-2.358,1.928-3.711,2.663
	c-1.101,0.598-0.109,2.205,0.994,1.605c1.356-0.738,2.473-1.771,3.711-2.663C166.323,186.002,166.545,185.514,166.25,185.038z"/>
<path fill="#FF6633" d="M109.55,30.129c-0.083,0.04-0.132,0.094-0.192,0.144c-1.587,0.039-2.114,2.171-1.904,3.45
	c0.339,2.061,2.969,3.105,4.885,2.266C115.738,34.5,113.173,28.401,109.55,30.129z M111.579,34.28
	c-0.573,0.491-1.849-0.02-2.106-0.633c-0.156-0.374-0.166-0.775-0.066-1.163c0.025-0.097,0.118-0.292,0.138-0.316
	c0.511,0.144,0.882-0.101,1.062-0.453c0.502-0.194,0.859,0.232,1.143,0.777C112.049,33.077,112.051,33.874,111.579,34.28z"/>
<path fill="#FF6633" d="M110.512,0.559c-5.07-2.569-11.928,4.351-14.166,8.012c-3.914,6.399,3.194,13.101,9.229,14.69
	C120.967,27.32,125.283,3.07,110.512,0.559z M107.726,21.717c-5.975-0.185-12.479-6.434-9.68-12.208
	c1.301-2.681,7.583-8.831,11.208-7.438c0.143,0.111,0.308,0.198,0.524,0.224C121.671,3.667,119.871,22.091,107.726,21.717z"/>
<path fill="#FF6633" d="M133.647,26.531c-0.17-0.909-0.86-1.873-1.646-2.406c-1.068-0.725-2.503-0.817-3.498-1.604
	c-0.516-0.409-1.145-0.221-1.481,0.156c-5.129-0.597-8.311,5.989-4.952,9.611c2.254,2.431,6.79,1.356,9.144-0.259
	C133.119,30.723,134.055,28.711,133.647,26.531z M129.291,31.009c-1.681,0.971-4.843,1.411-6.105-0.379
	c-1.729-2.45,0.593-6.791,3.867-6.09c0.352,0.075,0.637-0.024,0.85-0.2c0.859,0.444,1.795,0.661,2.698,1.116
	C133.427,26.883,131.024,30.007,129.291,31.009z"/>
<path fill="#B29167" d="M15.377,88.275C8.32,75.436,12.53,59.539,19.41,47.54c7.801-13.608,22.37-22.283,36.949-27.401
	c-0.189-0.821-0.401-1.637-0.615-2.457c-0.031-0.118-0.025-0.223-0.019-0.327c-0.028-0.014-0.056-0.027-0.083-0.042
	c-1.117-0.611-0.152-2.33,0.96-1.72c2.556,1.4,5.396,1.754,8.263,1.932c0.917,0.056,1.426,1.348,0.503,1.833
	c-2.868,1.509-4.453,4.15-5.468,7.145c-0.406,1.197-2.315,0.712-1.907-0.494c0.142-0.417,0.299-0.825,0.463-1.23
	c-0.565,0.312-1.516-0.061-1.54-0.852c-0.019-0.62-0.087-1.229-0.177-1.834c-13.33,4.721-26.191,12.389-34.233,24.206
	c-7.712,11.334-12.399,28.294-5.43,40.978C17.686,88.386,15.99,89.389,15.377,88.275z"/>
<path fill="#DDDBBB" d="M17.703,113.747c-0.119-1.077-0.056-2.241-0.134-3.323c-0.079-1.096,0.146-2.152-0.024-3.249
	c-0.072-0.462-0.376-0.678-0.722-0.708c-0.133-0.077-0.285-0.134-0.474-0.138c-1.981-0.045-3.961,0.099-5.941-0.031
	c-0.029-0.002-0.048,0.011-0.075,0.011c-0.51-0.025-1.037,0.285-1.033,0.943c0.007,1.191,0.055,2.38,0.062,3.571
	c0.006,1.028-0.197,2.003-0.058,3.032c0.086,0.627,0.604,0.807,1.079,0.674c2.13,0.324,4.249,0.103,6.397,0.08
	c0.055-0.001,0.095-0.023,0.145-0.031C17.458,114.63,17.778,114.426,17.703,113.747z"/>
<path fill="#DDDBBB" d="M26.725,113.747c-0.119-1.077-0.056-2.241-0.134-3.323c-0.079-1.096,0.146-2.152-0.024-3.249
	c-0.072-0.462-0.376-0.678-0.722-0.708c-0.133-0.077-0.285-0.134-0.475-0.138c-1.981-0.045-3.961,0.099-5.941-0.031
	c-0.029-0.002-0.048,0.011-0.075,0.011c-0.511-0.025-1.037,0.285-1.033,0.943c0.007,1.191,0.054,2.38,0.062,3.571
	c0.006,1.028-0.197,2.003-0.057,3.032c0.085,0.627,0.603,0.807,1.078,0.674c2.131,0.324,4.249,0.103,6.397,0.08
	c0.055-0.001,0.095-0.023,0.145-0.031C26.48,114.63,26.8,114.426,26.725,113.747z"/>
<path fill="#DDDBBB" d="M35.96,113.747c-0.119-1.077-0.056-2.241-0.134-3.323c-0.08-1.096,0.146-2.152-0.024-3.249
	c-0.072-0.462-0.377-0.678-0.722-0.708c-0.133-0.077-0.285-0.134-0.474-0.138c-1.981-0.045-3.961,0.099-5.941-0.031
	c-0.029-0.002-0.048,0.011-0.075,0.011c-0.51-0.025-1.037,0.285-1.033,0.943c0.007,1.191,0.055,2.38,0.062,3.571
	c0.006,1.028-0.197,2.003-0.057,3.032c0.085,0.627,0.603,0.807,1.079,0.674c2.13,0.324,4.248,0.103,6.397,0.08
	c0.055-0.001,0.095-0.023,0.145-0.031C35.714,114.63,36.035,114.426,35.96,113.747z"/>
<path fill="#DDDBBB" d="M17.703,131.666c-0.119-1.077-0.056-2.241-0.134-3.323c-0.079-1.096,0.146-2.151-0.024-3.248
	c-0.072-0.463-0.376-0.679-0.722-0.708c-0.133-0.078-0.285-0.135-0.474-0.139c-1.981-0.045-3.961,0.099-5.941-0.031
	c-0.029-0.002-0.048,0.011-0.075,0.011c-0.51-0.024-1.037,0.285-1.033,0.943c0.007,1.191,0.055,2.38,0.062,3.571
	c0.006,1.028-0.197,2.003-0.058,3.032c0.086,0.627,0.604,0.807,1.079,0.674c2.13,0.324,4.249,0.104,6.397,0.08
	c0.055-0.001,0.095-0.023,0.145-0.031C17.458,132.55,17.778,132.345,17.703,131.666z"/>
<path fill="#DDDBBB" d="M35.96,131.666c-0.119-1.077-0.056-2.241-0.134-3.323c-0.08-1.096,0.146-2.151-0.024-3.248
	c-0.072-0.463-0.377-0.679-0.722-0.708c-0.133-0.078-0.285-0.135-0.474-0.139c-1.981-0.045-3.961,0.099-5.941-0.031
	c-0.029-0.002-0.048,0.011-0.075,0.011c-0.51-0.024-1.037,0.285-1.033,0.943c0.007,1.191,0.055,2.38,0.062,3.571
	c0.006,1.028-0.197,2.003-0.057,3.032c0.085,0.627,0.603,0.807,1.079,0.674c2.13,0.324,4.248,0.104,6.397,0.08
	c0.055-0.001,0.095-0.023,0.145-0.031C35.714,132.55,36.035,132.345,35.96,131.666z"/>
<path fill="#DDDBBB" d="M44.989,131.666c-0.119-1.077-0.056-2.241-0.134-3.323c-0.08-1.096,0.146-2.151-0.024-3.248
	c-0.072-0.463-0.377-0.679-0.722-0.708c-0.133-0.078-0.285-0.135-0.474-0.139c-1.981-0.045-3.961,0.099-5.941-0.031
	c-0.029-0.002-0.048,0.011-0.075,0.011c-0.51-0.024-1.037,0.285-1.033,0.943c0.007,1.191,0.055,2.38,0.062,3.571
	c0.006,1.028-0.197,2.003-0.057,3.032c0.085,0.627,0.603,0.807,1.079,0.674c2.13,0.324,4.248,0.104,6.397,0.08
	c0.056-0.001,0.095-0.023,0.146-0.031C44.744,132.55,45.064,132.345,44.989,131.666z"/>
<path fill="#DDDBBB" d="M54.182,131.666c-0.119-1.077-0.056-2.241-0.134-3.323c-0.08-1.096,0.146-2.151-0.024-3.248
	c-0.071-0.463-0.376-0.679-0.722-0.708c-0.133-0.078-0.285-0.135-0.474-0.139c-1.981-0.045-3.961,0.099-5.941-0.031
	c-0.029-0.002-0.048,0.011-0.075,0.011c-0.51-0.024-1.037,0.285-1.033,0.943c0.007,1.191,0.054,2.38,0.062,3.571
	c0.006,1.028-0.197,2.003-0.057,3.032c0.085,0.627,0.603,0.807,1.078,0.674c2.131,0.324,4.249,0.104,6.397,0.08
	c0.055-0.001,0.095-0.023,0.146-0.031C53.937,132.55,54.257,132.345,54.182,131.666z"/>
<path fill="#DDDBBB" d="M63.073,131.666c-0.119-1.077-0.056-2.241-0.134-3.323c-0.08-1.096,0.146-2.151-0.024-3.248
	c-0.072-0.463-0.377-0.679-0.722-0.708c-0.133-0.078-0.285-0.135-0.474-0.139c-1.981-0.045-3.961,0.099-5.941-0.031
	c-0.029-0.002-0.048,0.011-0.075,0.011c-0.51-0.024-1.037,0.285-1.033,0.943c0.007,1.191,0.055,2.38,0.062,3.571
	c0.006,1.028-0.197,2.003-0.058,3.032c0.086,0.627,0.604,0.807,1.079,0.674c2.13,0.324,4.249,0.104,6.397,0.08
	c0.055-0.001,0.095-0.023,0.145-0.031C62.828,132.55,63.148,132.345,63.073,131.666z"/>
<path fill="#DDDBBB" d="M26.725,122.606c-0.119-1.077-0.056-2.241-0.134-3.323c-0.079-1.096,0.146-2.151-0.024-3.248
	c-0.072-0.463-0.376-0.679-0.722-0.708c-0.133-0.078-0.285-0.135-0.475-0.139c-1.981-0.045-3.961,0.099-5.941-0.031
	c-0.029-0.002-0.048,0.011-0.075,0.011c-0.511-0.025-1.037,0.285-1.033,0.943c0.007,1.191,0.054,2.38,0.062,3.571
	c0.006,1.028-0.197,2.003-0.057,3.032c0.085,0.627,0.603,0.807,1.078,0.674c2.131,0.324,4.249,0.104,6.397,0.08
	c0.055-0.001,0.095-0.023,0.145-0.031C26.48,123.491,26.8,123.286,26.725,122.606z"/>
<path fill="#DDDBBB" d="M35.96,122.606c-0.119-1.077-0.056-2.241-0.134-3.323c-0.08-1.096,0.146-2.151-0.024-3.248
	c-0.072-0.463-0.377-0.679-0.722-0.708c-0.133-0.078-0.285-0.135-0.474-0.139c-1.981-0.045-3.961,0.099-5.941-0.031
	c-0.029-0.002-0.048,0.011-0.075,0.011c-0.51-0.025-1.037,0.285-1.033,0.943c0.007,1.191,0.055,2.38,0.062,3.571
	c0.006,1.028-0.197,2.003-0.057,3.032c0.085,0.627,0.603,0.807,1.079,0.674c2.13,0.324,4.248,0.104,6.397,0.08
	c0.055-0.001,0.095-0.023,0.145-0.031C35.714,123.491,36.035,123.286,35.96,122.606z"/>
<path fill="#DDDBBB" d="M17.703,140.942c-0.119-1.077-0.056-2.241-0.134-3.323c-0.079-1.096,0.146-2.152-0.024-3.249
	c-0.072-0.463-0.376-0.678-0.722-0.708c-0.133-0.078-0.285-0.135-0.474-0.139c-1.981-0.044-3.961,0.1-5.941-0.03
	c-0.029-0.002-0.048,0.011-0.075,0.011c-0.51-0.025-1.037,0.284-1.033,0.943c0.007,1.191,0.055,2.38,0.062,3.57
	c0.006,1.029-0.197,2.003-0.058,3.032c0.086,0.628,0.604,0.808,1.079,0.675c2.13,0.324,4.249,0.103,6.397,0.08
	c0.055-0.001,0.095-0.023,0.145-0.031C17.458,141.826,17.778,141.621,17.703,140.942z"/>
<path fill="#DDDBBB" d="M44.989,140.942c-0.119-1.077-0.056-2.241-0.134-3.323c-0.08-1.096,0.146-2.152-0.024-3.249
	c-0.072-0.463-0.377-0.678-0.722-0.708c-0.133-0.078-0.285-0.135-0.474-0.139c-1.981-0.044-3.961,0.1-5.941-0.03
	c-0.029-0.002-0.048,0.011-0.075,0.011c-0.51-0.025-1.037,0.284-1.033,0.943c0.007,1.191,0.055,2.38,0.062,3.57
	c0.006,1.029-0.197,2.003-0.057,3.032c0.085,0.628,0.603,0.808,1.079,0.675c2.13,0.324,4.248,0.103,6.397,0.08
	c0.056-0.001,0.095-0.023,0.146-0.031C44.744,141.826,45.064,141.621,44.989,140.942z"/>
<path fill="#DDDBBB" d="M54.182,140.942c-0.119-1.077-0.056-2.241-0.134-3.323c-0.08-1.096,0.146-2.152-0.024-3.249
	c-0.071-0.463-0.376-0.678-0.722-0.708c-0.133-0.078-0.285-0.135-0.474-0.139c-1.981-0.044-3.961,0.1-5.941-0.03
	c-0.029-0.002-0.048,0.011-0.075,0.011c-0.51-0.025-1.037,0.284-1.033,0.943c0.007,1.191,0.054,2.38,0.062,3.57
	c0.006,1.029-0.197,2.003-0.057,3.032c0.085,0.628,0.603,0.808,1.078,0.675c2.131,0.324,4.249,0.103,6.397,0.08
	c0.055-0.001,0.095-0.023,0.146-0.031C53.937,141.826,54.257,141.621,54.182,140.942z"/>
<path fill="#DDDBBB" d="M63.073,140.942c-0.119-1.077-0.056-2.241-0.134-3.323c-0.08-1.096,0.146-2.152-0.024-3.249
	c-0.072-0.463-0.377-0.678-0.722-0.708c-0.133-0.078-0.285-0.135-0.474-0.139c-1.981-0.044-3.961,0.1-5.941-0.03
	c-0.029-0.002-0.048,0.011-0.075,0.011c-0.51-0.025-1.037,0.284-1.033,0.943c0.007,1.191,0.055,2.38,0.062,3.57
	c0.006,1.029-0.197,2.003-0.058,3.032c0.086,0.628,0.604,0.808,1.079,0.675c2.13,0.324,4.249,0.103,6.397,0.08
	c0.055-0.001,0.095-0.023,0.145-0.031C62.828,141.826,63.148,141.621,63.073,140.942z"/>
<path fill="#DDDBBB" d="M72.171,140.942c-0.119-1.077-0.056-2.241-0.134-3.323c-0.08-1.096,0.146-2.152-0.024-3.249
	c-0.072-0.463-0.377-0.678-0.722-0.708c-0.133-0.078-0.285-0.135-0.474-0.139c-1.981-0.044-3.961,0.1-5.941-0.03
	c-0.029-0.002-0.048,0.011-0.075,0.011c-0.51-0.025-1.037,0.284-1.033,0.943c0.007,1.191,0.055,2.38,0.062,3.57
	c0.006,1.029-0.197,2.003-0.057,3.032c0.085,0.628,0.603,0.808,1.079,0.675c2.13,0.324,4.248,0.103,6.397,0.08
	c0.056-0.001,0.095-0.023,0.146-0.031C71.925,141.826,72.246,141.621,72.171,140.942z"/>
<path fill="#DDDBBB" d="M81.365,140.942c-0.119-1.077-0.056-2.241-0.134-3.323c-0.08-1.096,0.146-2.152-0.024-3.249
	c-0.072-0.463-0.377-0.678-0.722-0.708c-0.133-0.078-0.285-0.135-0.474-0.139c-1.981-0.044-3.961,0.1-5.941-0.03
	c-0.029-0.002-0.048,0.011-0.075,0.011c-0.51-0.025-1.037,0.284-1.033,0.943c0.007,1.191,0.054,2.38,0.062,3.57
	c0.006,1.029-0.197,2.003-0.057,3.032c0.085,0.628,0.603,0.808,1.078,0.675c2.131,0.324,4.249,0.103,6.397,0.08
	c0.056-0.001,0.095-0.023,0.146-0.031C81.119,141.826,81.439,141.621,81.365,140.942z"/>
<path fill="#DDDBBB" d="M44.621,120.054c-1.24-1.078-2.565-2.045-3.783-3.148c-0.576-0.522-1.095-1.112-1.619-1.696
	c-0.508-0.004-1.017-0.019-1.525-0.053c-0.029-0.002-0.048,0.011-0.075,0.011c-0.51-0.025-1.037,0.285-1.033,0.943
	c0.007,1.191,0.055,2.38,0.062,3.571c0.006,1.028-0.197,2.003-0.057,3.032c0.085,0.627,0.603,0.807,1.079,0.674
	c2.13,0.324,4.248,0.104,6.397,0.08c0.056-0.001,0.095-0.023,0.146-0.031c0.533,0.054,0.853-0.151,0.778-0.831
	c-0.049-0.443-0.066-0.903-0.076-1.363C44.665,120.921,44.556,120.477,44.621,120.054z"/>
<path fill="#DDDBBB" d="M54.068,117.713c-0.454,0.306-0.903,0.619-1.338,0.962c-1.966,1.552-4.134,2.098-6.452,2.932
	c-0.192,0.069-0.37,0.091-0.535,0.083c-0.01,0.337-0.007,0.678,0.041,1.024c0.085,0.627,0.603,0.807,1.078,0.674
	c2.131,0.324,4.249,0.104,6.397,0.08c0.055-0.001,0.095-0.023,0.146-0.031c0.533,0.054,0.853-0.151,0.778-0.831
	c-0.119-1.077-0.056-2.241-0.134-3.323C54.01,118.753,54.043,118.233,54.068,117.713z"/>
<path fill="#DDDBBB" d="M62.942,118.083c-0.192-0.075-0.386-0.143-0.574-0.228c-1.302-0.588-2.516-1.752-3.98-1.863
	c-0.41-0.03-0.722-0.207-0.943-0.453c-0.906,0.604-1.834,1.171-2.754,1.762c0.016,0.794,0.036,1.587,0.041,2.382
	c0.006,1.028-0.197,2.003-0.058,3.032c0.086,0.627,0.604,0.807,1.079,0.674c2.13,0.324,4.249,0.104,6.397,0.08
	c0.055-0.001,0.095-0.023,0.145-0.031c0.533,0.054,0.854-0.151,0.778-0.831c-0.119-1.077-0.056-2.241-0.134-3.323
	C62.909,118.878,62.923,118.48,62.942,118.083z"/>
<path fill="#DDDBBB" d="M65.794,119.068c-0.658-0.233-1.324-0.447-1.987-0.668c0.009,0.427,0.02,0.854,0.022,1.282
	c0.006,1.028-0.197,2.003-0.057,3.032c0.085,0.627,0.603,0.807,1.079,0.674c0.631,0.097,1.262,0.137,1.893,0.156
	C66.488,122.041,66.209,120.541,65.794,119.068z"/>
<path fill="#DDDBBB" d="M68.937,131.272c-0.843-0.188-1.101-0.911-0.948-1.562c-0.507-1.786-0.819-3.613-1.124-5.442
	c-0.663,0.001-1.326-0.007-1.989-0.051c-0.029-0.002-0.048,0.011-0.075,0.011c-0.51-0.024-1.037,0.285-1.033,0.943
	c0.007,1.191,0.055,2.38,0.062,3.571c0.006,1.028-0.197,2.003-0.057,3.032c0.085,0.627,0.603,0.807,1.079,0.674
	c2.13,0.324,4.248,0.104,6.397,0.08c0.056-0.001,0.095-0.023,0.146-0.031c0.498,0.05,0.796-0.142,0.774-0.718
	C71.064,131.667,69.98,131.506,68.937,131.272z"/>
<path fill="#DDDBBB" d="M72.99,131.844c0.119,0.561,0.6,0.73,1.053,0.604c2.131,0.324,4.249,0.104,6.397,0.08
	c0.056-0.001,0.095-0.023,0.146-0.031c0.533,0.054,0.853-0.151,0.778-0.831c-0.007-0.064-0.009-0.132-0.015-0.197
	C78.65,131.898,75.772,132.046,72.99,131.844z"/>
<path fill="#DDDBBB" d="M82.016,141.049c0.062,0.46,0.358,0.675,0.698,0.707c1.454-2.788,2.937-5.554,4.57-8.234
	c-1.389,0.019-2.776,0.062-4.165-0.029c-0.029-0.002-0.048,0.011-0.075,0.011c-0.51-0.025-1.037,0.284-1.033,0.943
	c0.007,1.191,0.055,2.38,0.062,3.57C82.08,139.046,81.876,140.02,82.016,141.049z"/>
<path fill="#DDDBBB" d="M90.281,119.269c-0.724,0.292-1.458,0.555-2.202,0.793c-0.418,1.203-1.05,2.315-1.567,3.49
	c0.99-0.022,1.982-0.073,2.981-0.084c0.055-0.001,0.095-0.023,0.145-0.031c0.533,0.054,0.854-0.151,0.778-0.831
	c-0.119-1.077-0.056-2.241-0.134-3.323C90.281,119.278,90.281,119.274,90.281,119.269z"/>
<path fill="#DDDBBB" d="M91.21,122.714c0.085,0.627,0.603,0.807,1.079,0.674c0.009,0.001,0.019,0.001,0.028,0.003
	c0.592-0.934,1.191-1.864,1.815-2.771c0.822-1.193,1.729-2.378,2.215-3.755c-0.216-0.097-0.428-0.185-0.63-0.244
	c-0.04-0.012-0.074-0.031-0.113-0.046c-1.402,0.853-2.85,1.631-4.351,2.292c0.005,0.271,0.012,0.543,0.014,0.815
	C91.273,120.71,91.07,121.685,91.21,122.714z"/>
<path fill="#DDDBBB" d="M83.095,132.448c1.591,0.242,3.176,0.18,4.771,0.123c0.771-1.225,1.585-2.425,2.443-3.602
	c-0.007-0.21-0.013-0.421-0.028-0.627c-0.08-1.096,0.146-2.151-0.024-3.248c-0.072-0.463-0.377-0.679-0.722-0.708
	c-0.133-0.078-0.285-0.135-0.474-0.139c-0.947-0.021-1.895,0.001-2.843,0.015c-0.001,0.003-0.003,0.006-0.004,0.01
	c-0.7,1.851-1.352,3.713-2.132,5.529c0.061,0.593-0.227,1.189-0.988,1.348c-0.362,0.075-0.734,0.138-1.105,0.203
	c0.008,0.141,0.008,0.279,0.027,0.422C82.102,132.401,82.62,132.581,83.095,132.448z"/>
<path fill="#DDDBBB" d="M39.151,106.349c-0.485-0.006-0.971-0.02-1.457-0.052c-0.029-0.002-0.048,0.011-0.075,0.011
	c-0.51-0.025-1.037,0.285-1.033,0.943c0.004,0.694,0.021,1.389,0.036,2.082C37.371,108.25,38.248,107.295,39.151,106.349z"/>
<path fill="#DDDBBB" d="M26.725,140.942c-0.119-1.077-0.056-2.241-0.134-3.323c-0.079-1.096,0.146-2.152-0.024-3.249
	c-0.072-0.463-0.376-0.678-0.722-0.708c-0.133-0.078-0.285-0.135-0.475-0.139c-1.981-0.044-3.961,0.1-5.941-0.03
	c-0.029-0.002-0.048,0.011-0.075,0.011c-0.511-0.025-1.037,0.284-1.033,0.943c0.007,1.191,0.054,2.38,0.062,3.57
	c0.006,1.029-0.197,2.003-0.057,3.032c0.085,0.628,0.603,0.808,1.078,0.675c2.131,0.324,4.249,0.103,6.397,0.08
	c0.055-0.001,0.095-0.023,0.145-0.031C26.48,141.826,26.8,141.621,26.725,140.942z"/>
<path fill="#DDDBBB" d="M17.703,150.033c-0.119-1.078-0.056-2.242-0.134-3.324c-0.079-1.096,0.146-2.151-0.024-3.248
	c-0.072-0.463-0.376-0.679-0.722-0.708c-0.133-0.078-0.285-0.135-0.474-0.139c-1.981-0.044-3.961,0.099-5.941-0.031
	c-0.029-0.001-0.048,0.011-0.075,0.011c-0.51-0.024-1.037,0.285-1.033,0.944c0.007,1.19,0.055,2.38,0.062,3.57
	c0.006,1.028-0.197,2.003-0.058,3.032c0.086,0.627,0.604,0.807,1.079,0.674c2.13,0.324,4.249,0.104,6.397,0.08
	c0.055-0.001,0.095-0.023,0.145-0.03C17.458,150.917,17.778,150.711,17.703,150.033z"/>
<path fill="#DDDBBB" d="M35.96,150.033c-0.119-1.078-0.056-2.242-0.134-3.324c-0.08-1.096,0.146-2.151-0.024-3.248
	c-0.072-0.463-0.377-0.679-0.722-0.708c-0.133-0.078-0.285-0.135-0.474-0.139c-1.981-0.044-3.961,0.099-5.941-0.031
	c-0.029-0.001-0.048,0.011-0.075,0.011c-0.51-0.024-1.037,0.285-1.033,0.944c0.007,1.19,0.055,2.38,0.062,3.57
	c0.006,1.028-0.197,2.003-0.057,3.032c0.085,0.627,0.603,0.807,1.079,0.674c2.13,0.324,4.248,0.104,6.397,0.08
	c0.055-0.001,0.095-0.023,0.145-0.03C35.714,150.917,36.035,150.711,35.96,150.033z"/>
<path fill="#DDDBBB" d="M26.725,150.033c-0.119-1.078-0.056-2.242-0.134-3.324c-0.079-1.096,0.146-2.151-0.024-3.248
	c-0.072-0.463-0.376-0.679-0.722-0.708c-0.133-0.078-0.285-0.135-0.475-0.139c-1.981-0.044-3.961,0.099-5.941-0.031
	c-0.029-0.001-0.048,0.011-0.075,0.011c-0.511-0.024-1.037,0.285-1.033,0.944c0.007,1.19,0.054,2.38,0.062,3.57
	c0.006,1.028-0.197,2.003-0.057,3.032c0.085,0.627,0.603,0.807,1.078,0.674c2.131,0.324,4.249,0.104,6.397,0.08
	c0.055-0.001,0.095-0.023,0.145-0.03C26.48,150.917,26.8,150.711,26.725,150.033z"/>
<path fill="#DDDBBB" d="M54.182,150.033c-0.119-1.078-0.056-2.242-0.134-3.324c-0.08-1.096,0.146-2.151-0.024-3.248
	c-0.071-0.463-0.376-0.679-0.722-0.708c-0.133-0.078-0.285-0.135-0.474-0.139c-1.981-0.044-3.961,0.099-5.941-0.031
	c-0.029-0.001-0.048,0.011-0.075,0.011c-0.51-0.024-1.037,0.285-1.033,0.944c0.007,1.19,0.054,2.38,0.062,3.57
	c0.006,1.028-0.197,2.003-0.057,3.032c0.085,0.627,0.603,0.807,1.078,0.674c2.131,0.324,4.249,0.104,6.397,0.08
	c0.055-0.001,0.095-0.023,0.146-0.03C53.937,150.917,54.257,150.711,54.182,150.033z"/>
<path fill="#DDDBBB" d="M63.073,150.033c-0.119-1.078-0.056-2.242-0.134-3.324c-0.08-1.096,0.146-2.151-0.024-3.248
	c-0.072-0.463-0.377-0.679-0.722-0.708c-0.133-0.078-0.285-0.135-0.474-0.139c-1.981-0.044-3.961,0.099-5.941-0.031
	c-0.029-0.001-0.048,0.011-0.075,0.011c-0.51-0.024-1.037,0.285-1.033,0.944c0.007,1.19,0.055,2.38,0.062,3.57
	c0.006,1.028-0.197,2.003-0.058,3.032c0.086,0.627,0.604,0.807,1.079,0.674c2.13,0.324,4.249,0.104,6.397,0.08
	c0.055-0.001,0.095-0.023,0.145-0.03C62.828,150.917,63.148,150.711,63.073,150.033z"/>
<path fill="#DDDBBB" d="M72.171,150.033c-0.119-1.078-0.056-2.242-0.134-3.324c-0.08-1.096,0.146-2.151-0.024-3.248
	c-0.072-0.463-0.377-0.679-0.722-0.708c-0.133-0.078-0.285-0.135-0.474-0.139c-1.981-0.044-3.961,0.099-5.941-0.031
	c-0.029-0.001-0.048,0.011-0.075,0.011c-0.51-0.024-1.037,0.285-1.033,0.944c0.007,1.19,0.055,2.38,0.062,3.57
	c0.006,1.028-0.197,2.003-0.057,3.032c0.085,0.627,0.603,0.807,1.079,0.674c2.13,0.324,4.248,0.104,6.397,0.08
	c0.056-0.001,0.095-0.023,0.146-0.03C71.925,150.917,72.246,150.711,72.171,150.033z"/>
<path fill="#DDDBBB" d="M17.703,159.308c-0.119-1.077-0.056-2.241-0.134-3.323c-0.079-1.096,0.146-2.152-0.024-3.249
	c-0.072-0.462-0.376-0.678-0.722-0.708c-0.133-0.077-0.285-0.134-0.474-0.138c-1.981-0.045-3.961,0.099-5.941-0.031
	c-0.029-0.002-0.048,0.011-0.075,0.011c-0.51-0.025-1.037,0.284-1.033,0.943c0.007,1.191,0.055,2.38,0.062,3.571
	c0.006,1.028-0.197,2.003-0.058,3.031c0.086,0.628,0.604,0.808,1.079,0.675c2.13,0.324,4.249,0.103,6.397,0.08
	c0.055-0.001,0.095-0.023,0.145-0.031C17.458,160.192,17.778,159.988,17.703,159.308z"/>
<path fill="#DDDBBB" d="M44.989,159.308c-0.119-1.077-0.056-2.241-0.134-3.323c-0.08-1.096,0.146-2.152-0.024-3.249
	c-0.072-0.462-0.377-0.678-0.722-0.708c-0.133-0.077-0.285-0.134-0.474-0.138c-1.981-0.045-3.961,0.099-5.941-0.031
	c-0.029-0.002-0.048,0.011-0.075,0.011c-0.51-0.025-1.037,0.284-1.033,0.943c0.007,1.191,0.055,2.38,0.062,3.571
	c0.006,1.028-0.197,2.003-0.057,3.031c0.085,0.628,0.603,0.808,1.079,0.675c2.13,0.324,4.248,0.103,6.397,0.08
	c0.056-0.001,0.095-0.023,0.146-0.031C44.744,160.192,45.064,159.988,44.989,159.308z"/>
<path fill="#DDDBBB" d="M54.182,159.308c-0.119-1.077-0.056-2.241-0.134-3.323c-0.08-1.096,0.146-2.152-0.024-3.249
	c-0.071-0.462-0.376-0.678-0.722-0.708c-0.133-0.077-0.285-0.134-0.474-0.138c-1.981-0.045-3.961,0.099-5.941-0.031
	c-0.029-0.002-0.048,0.011-0.075,0.011c-0.51-0.025-1.037,0.284-1.033,0.943c0.007,1.191,0.054,2.38,0.062,3.571
	c0.006,1.028-0.197,2.003-0.057,3.031c0.085,0.628,0.603,0.808,1.078,0.675c2.131,0.324,4.249,0.103,6.397,0.08
	c0.055-0.001,0.095-0.023,0.146-0.031C53.937,160.192,54.257,159.988,54.182,159.308z"/>
<path fill="#DDDBBB" d="M63.073,159.308c-0.119-1.077-0.056-2.241-0.134-3.323c-0.08-1.096,0.146-2.152-0.024-3.249
	c-0.072-0.462-0.377-0.678-0.722-0.708c-0.133-0.077-0.285-0.134-0.474-0.138c-1.981-0.045-3.961,0.099-5.941-0.031
	c-0.029-0.002-0.048,0.011-0.075,0.011c-0.51-0.025-1.037,0.284-1.033,0.943c0.007,1.191,0.055,2.38,0.062,3.571
	c0.006,1.028-0.197,2.003-0.058,3.031c0.086,0.628,0.604,0.808,1.079,0.675c2.13,0.324,4.249,0.103,6.397,0.08
	c0.055-0.001,0.095-0.023,0.145-0.031C62.828,160.192,63.148,159.988,63.073,159.308z"/>
<path fill="#DDDBBB" d="M72.965,150.14c0.085,0.627,0.603,0.807,1.078,0.674c1.276,0.194,2.547,0.188,3.823,0.151
	c0.854-1.623,1.729-3.243,2.596-4.889c0.269-0.512,0.536-1.024,0.803-1.536c0.005-0.357-0.002-0.717-0.059-1.08
	c-0.072-0.463-0.377-0.679-0.722-0.708c-0.133-0.078-0.285-0.135-0.474-0.139c-1.981-0.044-3.961,0.099-5.941-0.031
	c-0.029-0.001-0.048,0.011-0.075,0.011c-0.51-0.024-1.037,0.285-1.033,0.944c0.007,1.19,0.054,2.38,0.062,3.57
	C73.029,148.136,72.825,149.111,72.965,150.14z"/>
<path fill="#DDDBBB" d="M72.965,159.416c0.061,0.45,0.346,0.661,0.676,0.701c1.055-2.835,2.348-5.538,3.737-8.216
	c-1.104,0.018-2.207,0.03-3.309-0.042c-0.029-0.002-0.048,0.011-0.075,0.011c-0.51-0.025-1.037,0.284-1.033,0.943
	c0.007,1.191,0.054,2.38,0.062,3.571C73.029,157.413,72.825,158.387,72.965,159.416z"/>
<path fill="#DDDBBB" d="M72.171,159.308c-0.119-1.077-0.056-2.241-0.134-3.323c-0.08-1.096,0.146-2.152-0.024-3.249
	c-0.072-0.462-0.377-0.678-0.722-0.708c-0.133-0.077-0.285-0.134-0.474-0.138c-1.981-0.045-3.961,0.099-5.941-0.031
	c-0.029-0.002-0.048,0.011-0.075,0.011c-0.51-0.025-1.037,0.284-1.033,0.943c0.007,1.191,0.055,2.38,0.062,3.571
	c0.006,1.028-0.197,2.003-0.057,3.031c0.085,0.628,0.603,0.808,1.079,0.675c2.13,0.324,4.248,0.103,6.397,0.08
	c0.056-0.001,0.095-0.023,0.146-0.031C71.925,160.192,72.246,159.988,72.171,159.308z"/>
<path fill="#DDDBBB" d="M26.725,159.308c-0.119-1.077-0.056-2.241-0.134-3.323c-0.079-1.096,0.146-2.152-0.024-3.249
	c-0.072-0.462-0.376-0.678-0.722-0.708c-0.133-0.077-0.285-0.134-0.475-0.138c-1.981-0.045-3.961,0.099-5.941-0.031
	c-0.029-0.002-0.048,0.011-0.075,0.011c-0.511-0.025-1.037,0.284-1.033,0.943c0.007,1.191,0.054,2.38,0.062,3.571
	c0.006,1.028-0.197,2.003-0.057,3.031c0.085,0.628,0.603,0.808,1.078,0.675c2.131,0.324,4.249,0.103,6.397,0.08
	c0.055-0.001,0.095-0.023,0.145-0.031C26.48,160.192,26.8,159.988,26.725,159.308z"/>
<path fill="#DDDBBB" d="M17.703,168.219c-0.119-1.078-0.056-2.242-0.134-3.324c-0.079-1.096,0.146-2.151-0.024-3.248
	c-0.072-0.463-0.376-0.679-0.722-0.708c-0.133-0.078-0.285-0.135-0.474-0.139c-1.981-0.044-3.961,0.099-5.941-0.031
	c-0.029-0.002-0.048,0.011-0.075,0.011c-0.51-0.024-1.037,0.285-1.033,0.944c0.007,1.19,0.055,2.38,0.062,3.57
	c0.006,1.028-0.197,2.003-0.058,3.032c0.086,0.627,0.604,0.807,1.079,0.674c2.13,0.324,4.249,0.104,6.397,0.08
	c0.055-0.001,0.095-0.023,0.145-0.03C17.458,169.103,17.778,168.898,17.703,168.219z"/>
<path fill="#DDDBBB" d="M44.989,168.219c-0.119-1.078-0.056-2.242-0.134-3.324c-0.08-1.096,0.146-2.151-0.024-3.248
	c-0.072-0.463-0.377-0.679-0.722-0.708c-0.133-0.078-0.285-0.135-0.474-0.139c-1.981-0.044-3.961,0.099-5.941-0.031
	c-0.029-0.002-0.048,0.011-0.075,0.011c-0.51-0.024-1.037,0.285-1.033,0.944c0.007,1.19,0.055,2.38,0.062,3.57
	c0.006,1.028-0.197,2.003-0.057,3.032c0.085,0.627,0.603,0.807,1.079,0.674c2.13,0.324,4.248,0.104,6.397,0.08
	c0.056-0.001,0.095-0.023,0.146-0.03C44.744,169.103,45.064,168.898,44.989,168.219z"/>
<path fill="#DDDBBB" d="M54.182,168.219c-0.119-1.078-0.056-2.242-0.134-3.324c-0.08-1.096,0.146-2.151-0.024-3.248
	c-0.071-0.463-0.376-0.679-0.722-0.708c-0.133-0.078-0.285-0.135-0.474-0.139c-1.981-0.044-3.961,0.099-5.941-0.031
	c-0.029-0.002-0.048,0.011-0.075,0.011c-0.51-0.024-1.037,0.285-1.033,0.944c0.007,1.19,0.054,2.38,0.062,3.57
	c0.006,1.028-0.197,2.003-0.057,3.032c0.085,0.627,0.603,0.807,1.078,0.674c2.131,0.324,4.249,0.104,6.397,0.08
	c0.055-0.001,0.095-0.023,0.146-0.03C53.937,169.103,54.257,168.898,54.182,168.219z"/>
<path fill="#DDDBBB" d="M63.073,168.219c-0.119-1.078-0.056-2.242-0.134-3.324c-0.08-1.096,0.146-2.151-0.024-3.248
	c-0.072-0.463-0.377-0.679-0.722-0.708c-0.133-0.078-0.285-0.135-0.474-0.139c-1.981-0.044-3.961,0.099-5.941-0.031
	c-0.029-0.002-0.048,0.011-0.075,0.011c-0.51-0.024-1.037,0.285-1.033,0.944c0.007,1.19,0.055,2.38,0.062,3.57
	c0.006,1.028-0.197,2.003-0.058,3.032c0.086,0.627,0.604,0.807,1.079,0.674c2.13,0.324,4.249,0.104,6.397,0.08
	c0.055-0.001,0.095-0.023,0.145-0.03C62.828,169.103,63.148,168.898,63.073,168.219z"/>
<path fill="#DDDBBB" d="M72.044,163.596c0.032-0.646,0.07-1.29-0.032-1.949c-0.072-0.463-0.377-0.679-0.722-0.708
	c-0.133-0.078-0.285-0.135-0.474-0.139c-1.981-0.044-3.961,0.099-5.941-0.031c-0.029-0.002-0.048,0.011-0.075,0.011
	c-0.51-0.024-1.037,0.285-1.033,0.944c0.007,1.19,0.055,2.38,0.062,3.57c0.006,1.028-0.197,2.003-0.057,3.032
	c0.085,0.627,0.603,0.807,1.079,0.674c1.546,0.236,3.086,0.183,4.635,0.127C70.192,167.209,71.093,165.353,72.044,163.596z"/>
<path fill="#DDDBBB" d="M35.921,168.219c-0.119-1.078-0.056-2.242-0.134-3.324c-0.08-1.096,0.146-2.151-0.024-3.248
	c-0.072-0.463-0.377-0.679-0.722-0.708c-0.133-0.078-0.285-0.135-0.474-0.139c-1.981-0.044-3.961,0.099-5.941-0.031
	c-0.029-0.002-0.048,0.011-0.075,0.011c-0.51-0.024-1.037,0.285-1.033,0.944c0.007,1.19,0.055,2.38,0.062,3.57
	c0.006,1.028-0.197,2.003-0.058,3.032c0.086,0.627,0.604,0.807,1.079,0.674c2.13,0.324,4.249,0.104,6.397,0.08
	c0.055-0.001,0.095-0.023,0.145-0.03C35.676,169.103,35.997,168.898,35.921,168.219z"/>
<path fill="#DDDBBB" d="M35.921,177.345c-0.119-1.077-0.056-2.241-0.134-3.323c-0.08-1.096,0.146-2.151-0.024-3.248
	c-0.072-0.463-0.377-0.679-0.722-0.708c-0.133-0.078-0.285-0.135-0.474-0.139c-1.981-0.044-3.961,0.099-5.941-0.031
	c-0.029-0.002-0.048,0.011-0.075,0.011c-0.51-0.024-1.037,0.285-1.033,0.944c0.007,1.19,0.055,2.38,0.062,3.57
	c0.006,1.028-0.197,2.003-0.058,3.032c0.086,0.627,0.604,0.807,1.079,0.674c2.13,0.324,4.249,0.104,6.397,0.08
	c0.055-0.001,0.095-0.023,0.145-0.03C35.676,178.23,35.997,178.025,35.921,177.345z"/>
<path fill="#DDDBBB" d="M35.921,186.24c-0.119-1.077-0.056-2.241-0.134-3.323c-0.08-1.096,0.146-2.152-0.024-3.249
	c-0.072-0.462-0.377-0.678-0.722-0.708c-0.133-0.077-0.285-0.135-0.474-0.138c-1.981-0.045-3.961,0.099-5.941-0.031
	c-0.029-0.002-0.048,0.011-0.075,0.011c-0.51-0.025-1.037,0.284-1.033,0.943c0.007,1.191,0.055,2.38,0.062,3.571
	c0.006,1.028-0.197,2.002-0.058,3.031c0.086,0.628,0.604,0.808,1.079,0.675c2.13,0.324,4.249,0.103,6.397,0.08
	c0.055-0.001,0.095-0.023,0.145-0.031C35.676,187.124,35.997,186.919,35.921,186.24z"/>
<path fill="#DDDBBB" d="M35.921,195.435c-0.119-1.077-0.056-2.241-0.134-3.323c-0.08-1.096,0.146-2.152-0.024-3.249
	c-0.072-0.463-0.377-0.678-0.722-0.708c-0.133-0.077-0.285-0.135-0.474-0.139c-1.981-0.044-3.961,0.1-5.941-0.03
	c-0.029-0.002-0.048,0.011-0.075,0.011c-0.51-0.025-1.037,0.284-1.033,0.943c0.007,1.191,0.055,2.38,0.062,3.571
	c0.006,1.027-0.197,2.002-0.058,3.031c0.086,0.628,0.604,0.808,1.079,0.675c2.13,0.324,4.249,0.103,6.397,0.08
	c0.055-0.001,0.095-0.023,0.145-0.031C35.676,196.319,35.997,196.114,35.921,195.435z"/>
<path fill="#DDDBBB" d="M44.989,177.345c-0.119-1.077-0.056-2.241-0.134-3.323c-0.08-1.096,0.146-2.151-0.024-3.248
	c-0.072-0.463-0.377-0.679-0.722-0.708c-0.133-0.078-0.285-0.135-0.474-0.139c-1.981-0.044-3.961,0.099-5.941-0.031
	c-0.029-0.002-0.048,0.011-0.075,0.011c-0.51-0.024-1.037,0.285-1.033,0.944c0.007,1.19,0.055,2.38,0.062,3.57
	c0.006,1.028-0.197,2.003-0.057,3.032c0.085,0.627,0.603,0.807,1.079,0.674c2.13,0.324,4.248,0.104,6.397,0.08
	c0.056-0.001,0.095-0.023,0.146-0.03C44.744,178.23,45.064,178.025,44.989,177.345z"/>
<path fill="#DDDBBB" d="M54.182,177.345c-0.119-1.077-0.056-2.241-0.134-3.323c-0.08-1.096,0.146-2.151-0.024-3.248
	c-0.071-0.463-0.376-0.679-0.722-0.708c-0.133-0.078-0.285-0.135-0.474-0.139c-1.981-0.044-3.961,0.099-5.941-0.031
	c-0.029-0.002-0.048,0.011-0.075,0.011c-0.51-0.024-1.037,0.285-1.033,0.944c0.007,1.19,0.054,2.38,0.062,3.57
	c0.006,1.028-0.197,2.003-0.057,3.032c0.085,0.627,0.603,0.807,1.078,0.674c2.131,0.324,4.249,0.104,6.397,0.08
	c0.055-0.001,0.095-0.023,0.146-0.03C53.937,178.23,54.257,178.025,54.182,177.345z"/>
<path fill="#DDDBBB" d="M63.073,177.345c-0.119-1.077-0.056-2.241-0.134-3.323c-0.08-1.096,0.146-2.151-0.024-3.248
	c-0.072-0.463-0.377-0.679-0.722-0.708c-0.133-0.078-0.285-0.135-0.474-0.139c-1.981-0.044-3.961,0.099-5.941-0.031
	c-0.029-0.002-0.048,0.011-0.075,0.011c-0.51-0.024-1.037,0.285-1.033,0.944c0.007,1.19,0.055,2.38,0.062,3.57
	c0.006,1.028-0.197,2.003-0.058,3.032c0.086,0.627,0.604,0.807,1.079,0.674c2.13,0.324,4.249,0.104,6.397,0.08
	c0.055-0.001,0.095-0.023,0.145-0.03C62.828,178.23,63.148,178.025,63.073,177.345z"/>
<path fill="#DDDBBB" d="M69.207,169.924c-1.444,0.017-2.888,0.066-4.331-0.028c-0.029-0.002-0.048,0.011-0.075,0.011
	c-0.51-0.024-1.037,0.285-1.033,0.944c0.007,1.19,0.055,2.38,0.062,3.57c0.006,1.028-0.197,2.003-0.057,3.032
	c0.085,0.627,0.603,0.807,1.079,0.674c1.113,0.17,2.223,0.188,3.335,0.166C67.816,175.46,68.295,172.637,69.207,169.924z"/>
<path fill="#DDDBBB" d="M26.725,177.345c-0.119-1.077-0.056-2.241-0.134-3.323c-0.079-1.096,0.146-2.151-0.024-3.248
	c-0.072-0.463-0.376-0.679-0.722-0.708c-0.133-0.078-0.285-0.135-0.475-0.139c-1.981-0.044-3.961,0.099-5.941-0.031
	c-0.029-0.002-0.048,0.011-0.075,0.011c-0.511-0.024-1.037,0.285-1.033,0.944c0.007,1.19,0.054,2.38,0.062,3.57
	c0.006,1.028-0.197,2.003-0.057,3.032c0.085,0.627,0.603,0.807,1.078,0.674c2.131,0.324,4.249,0.104,6.397,0.08
	c0.055-0.001,0.095-0.023,0.145-0.03C26.48,178.23,26.8,178.025,26.725,177.345z"/>
<path fill="#DDDBBB" d="M17.703,186.24c-0.119-1.077-0.056-2.241-0.134-3.323c-0.079-1.096,0.146-2.152-0.024-3.249
	c-0.072-0.462-0.376-0.678-0.722-0.708c-0.133-0.077-0.285-0.135-0.474-0.138c-1.981-0.045-3.961,0.099-5.941-0.031
	c-0.029-0.002-0.048,0.011-0.075,0.011c-0.51-0.025-1.037,0.284-1.033,0.943c0.007,1.191,0.055,2.38,0.062,3.571
	c0.006,1.028-0.197,2.002-0.058,3.031c0.086,0.628,0.604,0.808,1.079,0.675c2.13,0.324,4.249,0.103,6.397,0.08
	c0.055-0.001,0.095-0.023,0.145-0.031C17.458,187.124,17.778,186.919,17.703,186.24z"/>
<path fill="#DDDBBB" d="M44.989,186.24c-0.119-1.077-0.056-2.241-0.134-3.323c-0.08-1.096,0.146-2.152-0.024-3.249
	c-0.072-0.462-0.377-0.678-0.722-0.708c-0.133-0.077-0.285-0.135-0.474-0.138c-1.981-0.045-3.961,0.099-5.941-0.031
	c-0.029-0.002-0.048,0.011-0.075,0.011c-0.51-0.025-1.037,0.284-1.033,0.943c0.007,1.191,0.055,2.38,0.062,3.571
	c0.006,1.028-0.197,2.002-0.057,3.031c0.085,0.628,0.603,0.808,1.079,0.675c2.13,0.324,4.248,0.103,6.397,0.08
	c0.056-0.001,0.095-0.023,0.146-0.031C44.744,187.124,45.064,186.919,44.989,186.24z"/>
<path fill="#DDDBBB" d="M54.182,195.435c-0.119-1.077-0.056-2.241-0.134-3.323c-0.08-1.096,0.146-2.152-0.024-3.249
	c-0.071-0.463-0.376-0.678-0.722-0.708c-0.133-0.077-0.285-0.135-0.474-0.139c-1.981-0.044-3.961,0.1-5.941-0.03
	c-0.029-0.002-0.048,0.011-0.075,0.011c-0.51-0.025-1.037,0.284-1.033,0.943c0.007,1.191,0.054,2.38,0.062,3.571
	c0.006,1.027-0.197,2.002-0.057,3.031c0.085,0.628,0.603,0.808,1.078,0.675c2.131,0.324,4.249,0.103,6.397,0.08
	c0.055-0.001,0.095-0.023,0.146-0.031C53.937,196.319,54.257,196.114,54.182,195.435z"/>
<path fill="#DDDBBB" d="M63.073,195.435c-0.119-1.077-0.056-2.241-0.134-3.323c-0.08-1.096,0.146-2.152-0.024-3.249
	c-0.072-0.463-0.377-0.678-0.722-0.708c-0.133-0.077-0.285-0.135-0.474-0.139c-1.981-0.044-3.961,0.1-5.941-0.03
	c-0.029-0.002-0.048,0.011-0.075,0.011c-0.51-0.025-1.037,0.284-1.033,0.943c0.007,1.191,0.055,2.38,0.062,3.571
	c0.006,1.027-0.197,2.002-0.058,3.031c0.086,0.628,0.604,0.808,1.079,0.675c2.13,0.324,4.249,0.103,6.397,0.08
	c0.055-0.001,0.095-0.023,0.145-0.031C62.828,196.319,63.148,196.114,63.073,195.435z"/>
<path fill="#DDDBBB" d="M72.051,190.652c-0.143-0.177-0.289-0.351-0.426-0.532c-0.5-0.658-0.788-1.45-1.269-2.105
	c-1.828-0.016-3.655,0.092-5.481-0.028c-0.029-0.002-0.048,0.011-0.075,0.011c-0.51-0.025-1.037,0.284-1.033,0.943
	c0.007,1.191,0.055,2.38,0.062,3.571c0.006,1.027-0.197,2.002-0.057,3.031c0.085,0.628,0.603,0.808,1.079,0.675
	c2.13,0.324,4.248,0.103,6.397,0.08c0.056-0.001,0.095-0.023,0.146-0.031c0.533,0.053,0.853-0.152,0.778-0.831
	c-0.119-1.077-0.056-2.241-0.134-3.323C72.001,191.62,72.027,191.136,72.051,190.652z"/>
<path fill="#DDDBBB" d="M26.725,186.24c-0.119-1.077-0.056-2.241-0.134-3.323c-0.079-1.096,0.146-2.152-0.024-3.249
	c-0.072-0.462-0.376-0.678-0.722-0.708c-0.133-0.077-0.285-0.135-0.475-0.138c-1.981-0.045-3.961,0.099-5.941-0.031
	c-0.029-0.002-0.048,0.011-0.075,0.011c-0.511-0.025-1.037,0.284-1.033,0.943c0.007,1.191,0.054,2.38,0.062,3.571
	c0.006,1.028-0.197,2.002-0.057,3.031c0.085,0.628,0.603,0.808,1.078,0.675c2.131,0.324,4.249,0.103,6.397,0.08
	c0.055-0.001,0.095-0.023,0.145-0.031C26.48,187.124,26.8,186.919,26.725,186.24z"/>
<path fill="#DDDBBB" d="M17.703,195.435c-0.119-1.077-0.056-2.241-0.134-3.323c-0.079-1.096,0.146-2.152-0.024-3.249
	c-0.072-0.463-0.376-0.678-0.722-0.708c-0.133-0.077-0.285-0.135-0.474-0.139c-1.981-0.044-3.961,0.1-5.941-0.03
	c-0.029-0.002-0.048,0.011-0.075,0.011c-0.51-0.025-1.037,0.284-1.033,0.943c0.007,1.191,0.055,2.38,0.062,3.571
	c0.006,1.027-0.197,2.002-0.058,3.031c0.086,0.628,0.604,0.808,1.079,0.675c2.13,0.324,4.249,0.103,6.397,0.08
	c0.055-0.001,0.095-0.023,0.145-0.031C17.458,196.319,17.778,196.114,17.703,195.435z"/>
<path fill="#DDDBBB" d="M8.509,113.747c-0.119-1.077-0.056-2.241-0.134-3.323c-0.079-1.096,0.146-2.152-0.024-3.249
	c-0.072-0.462-0.376-0.678-0.722-0.708c-0.132-0.077-0.285-0.134-0.474-0.138c-1.981-0.045-3.961,0.099-5.941-0.031
	c-0.029-0.002-0.048,0.011-0.075,0.011c-0.51-0.025-1.037,0.285-1.033,0.943c0.007,1.191,0.054,2.38,0.062,3.571
	c0.006,1.028-0.197,2.003-0.058,3.032c0.086,0.627,0.604,0.807,1.079,0.674c2.131,0.324,4.249,0.103,6.397,0.08
	c0.055-0.001,0.095-0.023,0.145-0.031C8.264,114.63,8.584,114.426,8.509,113.747z"/>
<path fill="#DDDBBB" d="M17.703,104.737c-0.119-1.077-0.056-2.241-0.134-3.323c-0.079-1.096,0.146-2.152-0.024-3.249
	c-0.072-0.462-0.376-0.678-0.722-0.708c-0.133-0.078-0.285-0.134-0.474-0.138c-1.981-0.044-3.961,0.099-5.941-0.031
	c-0.029-0.002-0.048,0.01-0.075,0.01c-0.51-0.025-1.037,0.285-1.033,0.944c0.007,1.191,0.055,2.38,0.062,3.571
	c0.006,1.028-0.197,2.003-0.058,3.032c0.086,0.627,0.604,0.807,1.079,0.674c2.13,0.324,4.249,0.104,6.397,0.08
	c0.055-0.001,0.095-0.023,0.145-0.031C17.458,105.622,17.778,105.417,17.703,104.737z"/>
<path fill="#DDDBBB" d="M26.725,104.737c-0.119-1.077-0.056-2.241-0.134-3.323c-0.079-1.096,0.146-2.152-0.024-3.249
	c-0.072-0.462-0.376-0.678-0.722-0.708c-0.133-0.078-0.285-0.134-0.475-0.138c-1.981-0.044-3.961,0.099-5.941-0.031
	c-0.029-0.002-0.048,0.01-0.075,0.01c-0.511-0.025-1.037,0.285-1.033,0.944c0.007,1.191,0.054,2.38,0.062,3.571
	c0.006,1.028-0.197,2.003-0.057,3.032c0.085,0.627,0.603,0.807,1.078,0.674c2.131,0.324,4.249,0.104,6.397,0.08
	c0.055-0.001,0.095-0.023,0.145-0.031C26.48,105.622,26.8,105.417,26.725,104.737z"/>
<path fill="#DDDBBB" d="M35.96,104.737c-0.119-1.077-0.056-2.241-0.134-3.323c-0.08-1.096,0.146-2.152-0.024-3.249
	c-0.072-0.462-0.377-0.678-0.722-0.708c-0.133-0.078-0.285-0.134-0.474-0.138c-1.981-0.044-3.961,0.099-5.941-0.031
	c-0.029-0.002-0.048,0.01-0.075,0.01c-0.51-0.025-1.037,0.285-1.033,0.944c0.007,1.191,0.055,2.38,0.062,3.571
	c0.006,1.028-0.197,2.003-0.057,3.032c0.085,0.627,0.603,0.807,1.079,0.674c2.13,0.324,4.248,0.104,6.397,0.08
	c0.055-0.001,0.095-0.023,0.145-0.031C35.714,105.622,36.035,105.417,35.96,104.737z"/>
<path fill="#DDDBBB" d="M36.59,104.845c0.085,0.627,0.603,0.807,1.079,0.674c0.704,0.107,1.407,0.144,2.11,0.158
	c0.233-0.247,0.467-0.492,0.694-0.748c0.996-1.123,1.868-2.337,2.738-3.553c-0.782-1.274-1.622-2.513-2.548-3.685
	c-0.091-0.115-0.154-0.235-0.205-0.356c-0.922,0.012-1.843,0.013-2.765-0.048c-0.029-0.002-0.048,0.01-0.075,0.01
	c-0.51-0.025-1.037,0.285-1.033,0.944c0.007,1.191,0.055,2.38,0.062,3.571C36.653,102.841,36.45,103.816,36.59,104.845z"/>
<path fill="#DDDBBB" d="M8.509,104.737c-0.119-1.077-0.056-2.241-0.134-3.323c-0.079-1.096,0.146-2.152-0.024-3.249
	c-0.072-0.462-0.376-0.678-0.722-0.708c-0.132-0.078-0.285-0.134-0.474-0.138c-1.981-0.044-3.961,0.099-5.941-0.031
	c-0.029-0.002-0.048,0.01-0.075,0.01c-0.51-0.025-1.037,0.285-1.033,0.944c0.007,1.191,0.054,2.38,0.062,3.571
	c0.006,1.028-0.197,2.003-0.058,3.032c0.086,0.627,0.604,0.807,1.079,0.674c2.131,0.324,4.249,0.104,6.397,0.08
	c0.055-0.001,0.095-0.023,0.145-0.031C8.264,105.622,8.584,105.417,8.509,104.737z"/>
<path fill="#DDDBBB" d="M8.509,131.666c-0.119-1.077-0.056-2.241-0.134-3.323c-0.079-1.096,0.146-2.151-0.024-3.248
	c-0.072-0.463-0.376-0.679-0.722-0.708c-0.132-0.078-0.285-0.135-0.474-0.139c-1.981-0.045-3.961,0.099-5.941-0.031
	c-0.029-0.002-0.048,0.011-0.075,0.011c-0.51-0.024-1.037,0.285-1.033,0.943c0.007,1.191,0.054,2.38,0.062,3.571
	c0.006,1.028-0.197,2.003-0.058,3.032c0.086,0.627,0.604,0.807,1.079,0.674c2.131,0.324,4.249,0.104,6.397,0.08
	c0.055-0.001,0.095-0.023,0.145-0.031C8.264,132.55,8.584,132.345,8.509,131.666z"/>
<path fill="#DDDBBB" d="M8.509,122.606c-0.119-1.077-0.056-2.241-0.134-3.323c-0.079-1.096,0.146-2.151-0.024-3.248
	c-0.072-0.463-0.376-0.679-0.722-0.708c-0.132-0.078-0.285-0.135-0.474-0.139c-1.981-0.045-3.961,0.099-5.941-0.031
	c-0.029-0.002-0.048,0.011-0.075,0.011c-0.51-0.025-1.037,0.285-1.033,0.943c0.007,1.191,0.054,2.38,0.062,3.571
	c0.006,1.028-0.197,2.003-0.058,3.032c0.086,0.627,0.604,0.807,1.079,0.674c2.131,0.324,4.249,0.104,6.397,0.08
	c0.055-0.001,0.095-0.023,0.145-0.031C8.264,123.491,8.584,123.286,8.509,122.606z"/>
<path fill="#DDDBBB" d="M8.509,140.942c-0.119-1.077-0.056-2.241-0.134-3.323c-0.079-1.096,0.146-2.152-0.024-3.249
	c-0.072-0.463-0.376-0.678-0.722-0.708c-0.132-0.078-0.285-0.135-0.474-0.139c-1.981-0.044-3.961,0.1-5.941-0.03
	c-0.029-0.002-0.048,0.011-0.075,0.011c-0.51-0.025-1.037,0.284-1.033,0.943c0.007,1.191,0.054,2.38,0.062,3.57
	c0.006,1.029-0.197,2.003-0.058,3.032c0.086,0.628,0.604,0.808,1.079,0.675c2.131,0.324,4.249,0.103,6.397,0.08
	c0.055-0.001,0.095-0.023,0.145-0.031C8.264,141.826,8.584,141.621,8.509,140.942z"/>
<path fill="#DDDBBB" d="M8.509,150.033c-0.119-1.078-0.056-2.242-0.134-3.324c-0.079-1.096,0.146-2.151-0.024-3.248
	c-0.072-0.463-0.376-0.679-0.722-0.708c-0.132-0.078-0.285-0.135-0.474-0.139c-1.981-0.044-3.961,0.099-5.941-0.031
	c-0.029-0.001-0.048,0.011-0.075,0.011c-0.51-0.024-1.037,0.285-1.033,0.944c0.007,1.19,0.054,2.38,0.062,3.57
	c0.006,1.028-0.197,2.003-0.058,3.032c0.086,0.627,0.604,0.807,1.079,0.674c2.131,0.324,4.249,0.104,6.397,0.08
	c0.055-0.001,0.095-0.023,0.145-0.03C8.264,150.917,8.584,150.711,8.509,150.033z"/>
<path fill="#DDDBBB" d="M8.509,159.308c-0.119-1.077-0.056-2.241-0.134-3.323c-0.079-1.096,0.146-2.152-0.024-3.249
	c-0.072-0.462-0.376-0.678-0.722-0.708c-0.132-0.077-0.285-0.134-0.474-0.138c-1.981-0.045-3.961,0.099-5.941-0.031
	c-0.029-0.002-0.048,0.011-0.075,0.011c-0.51-0.025-1.037,0.284-1.033,0.943c0.007,1.191,0.054,2.38,0.062,3.571
	c0.006,1.028-0.197,2.003-0.058,3.031c0.086,0.628,0.604,0.808,1.079,0.675c2.131,0.324,4.249,0.103,6.397,0.08
	c0.055-0.001,0.095-0.023,0.145-0.031C8.264,160.192,8.584,159.988,8.509,159.308z"/>
<path fill="#DDDBBB" d="M8.509,168.219c-0.119-1.078-0.056-2.242-0.134-3.324c-0.079-1.096,0.146-2.151-0.024-3.248
	c-0.072-0.463-0.376-0.679-0.722-0.708c-0.132-0.078-0.285-0.135-0.474-0.139c-1.981-0.044-3.961,0.099-5.941-0.031
	c-0.029-0.002-0.048,0.011-0.075,0.011c-0.51-0.024-1.037,0.285-1.033,0.944c0.007,1.19,0.054,2.38,0.062,3.57
	c0.006,1.028-0.197,2.003-0.058,3.032c0.086,0.627,0.604,0.807,1.079,0.674c2.131,0.324,4.249,0.104,6.397,0.08
	c0.055-0.001,0.095-0.023,0.145-0.03C8.264,169.103,8.584,168.898,8.509,168.219z"/>
<path fill="#DDDBBB" d="M8.509,177.345c-0.119-1.077-0.056-2.241-0.134-3.323c-0.079-1.096,0.146-2.151-0.024-3.248
	c-0.072-0.463-0.376-0.679-0.722-0.708c-0.132-0.078-0.285-0.135-0.474-0.139c-1.981-0.044-3.961,0.099-5.941-0.031
	c-0.029-0.002-0.048,0.011-0.075,0.011c-0.51-0.024-1.037,0.285-1.033,0.944c0.007,1.19,0.054,2.38,0.062,3.57
	c0.006,1.028-0.197,2.003-0.058,3.032c0.086,0.627,0.604,0.807,1.079,0.674c2.131,0.324,4.249,0.104,6.397,0.08
	c0.055-0.001,0.095-0.023,0.145-0.03C8.264,178.23,8.584,178.025,8.509,177.345z"/>
<path fill="#DDDBBB" d="M8.509,186.24c-0.119-1.077-0.056-2.241-0.134-3.323c-0.079-1.096,0.146-2.152-0.024-3.249
	c-0.072-0.462-0.376-0.678-0.722-0.708c-0.132-0.077-0.285-0.135-0.474-0.138c-1.981-0.045-3.961,0.099-5.941-0.031
	c-0.029-0.002-0.048,0.011-0.075,0.011c-0.51-0.025-1.037,0.284-1.033,0.943c0.007,1.191,0.054,2.38,0.062,3.571
	c0.006,1.028-0.197,2.002-0.058,3.031c0.086,0.628,0.604,0.808,1.079,0.675c2.131,0.324,4.249,0.103,6.397,0.08
	c0.055-0.001,0.095-0.023,0.145-0.031C8.264,187.124,8.584,186.919,8.509,186.24z"/>
<path fill="#DDDBBB" d="M8.509,195.435c-0.119-1.077-0.056-2.241-0.134-3.323c-0.079-1.096,0.146-2.152-0.024-3.249
	c-0.072-0.463-0.376-0.678-0.722-0.708c-0.132-0.077-0.285-0.135-0.474-0.139c-1.981-0.044-3.961,0.1-5.941-0.03
	c-0.029-0.002-0.048,0.011-0.075,0.011c-0.51-0.025-1.037,0.284-1.033,0.943c0.007,1.191,0.054,2.38,0.062,3.571
	c0.006,1.027-0.197,2.002-0.058,3.031c0.086,0.628,0.604,0.808,1.079,0.675c2.131,0.324,4.249,0.103,6.397,0.08
	c0.055-0.001,0.095-0.023,0.145-0.031C8.264,196.319,8.584,196.114,8.509,195.435z"/>
<path fill="#DDDBBB" d="M44.989,195.435c-0.119-1.077-0.056-2.241-0.134-3.323c-0.08-1.096,0.146-2.152-0.024-3.249
	c-0.072-0.463-0.377-0.678-0.722-0.708c-0.133-0.077-0.285-0.135-0.474-0.139c-1.981-0.044-3.961,0.1-5.941-0.03
	c-0.029-0.002-0.048,0.011-0.075,0.011c-0.51-0.025-1.037,0.284-1.033,0.943c0.007,1.191,0.055,2.38,0.062,3.571
	c0.006,1.027-0.197,2.002-0.057,3.031c0.085,0.628,0.603,0.808,1.079,0.675c2.13,0.324,4.248,0.103,6.397,0.08
	c0.056-0.001,0.095-0.023,0.146-0.031C44.744,196.319,45.064,196.114,44.989,195.435z"/>
<path fill="#DDDBBB" d="M26.725,195.435c-0.119-1.077-0.056-2.241-0.134-3.323c-0.079-1.096,0.146-2.152-0.024-3.249
	c-0.072-0.463-0.376-0.678-0.722-0.708c-0.133-0.077-0.285-0.135-0.475-0.139c-1.981-0.044-3.961,0.1-5.941-0.03
	c-0.029-0.002-0.048,0.011-0.075,0.011c-0.511-0.025-1.037,0.284-1.033,0.943c0.007,1.191,0.054,2.38,0.062,3.571
	c0.006,1.027-0.197,2.002-0.057,3.031c0.085,0.628,0.603,0.808,1.078,0.675c2.131,0.324,4.249,0.103,6.397,0.08
	c0.055-0.001,0.095-0.023,0.145-0.031C26.48,196.319,26.8,196.114,26.725,195.435z"/>
<path fill="#6DBBB7" d="M166.656,165.674c0.083-0.003,0.167-0.006,0.253-0.01c-0.205-0.608-0.379-1.227-0.551-1.835
	c-4.094,0.16-11.524,0.121-13.707-3.289c-3.297-5.153,3.771-5.358,7.704-5.348c0.049,0.063,0.109,0.111,0.169,0.159
	c0.411-0.209,0.933-0.263,1.371-0.225c0.061,0.005,0.12,0.016,0.182,0.021c0.054-0.097,0.094-0.201,0.094-0.324
	c0.367-0.511,0.156-1.36-0.632-1.459c-1.64-2.811-4.711-5.552-5.224-8.643c0.056,0.006,0.11,0.01,0.165,0.017
	c0.023,0.003,0.038-0.006,0.061-0.005c-0.272-0.567-0.492-1.158-0.655-1.739c-0.018-0.059-0.021-0.113-0.028-0.168
	c-3.298-0.336-6.62-0.24-9.931-0.39c-0.151-0.249-0.4-0.449-0.774-0.488c-2.999-0.307-5.514-6.037-2.638-7.714
	c2.702-0.184,5.768-0.879,8.272,0.142c0.654,0.872,2.197-0.017,1.618-1.032c-1.808-3.172-3.573-6.36-4.825-9.772
	c-0.357-0.976-1.829-0.739-1.946,0.078c-4.362,0.312-10.05,1.081-13.5-1.643c-2.681-2.116-1.372-5.943,1.706-6.706
	c2.291-0.566,4.84-0.29,7.219-0.306c0.645,0.673,1.625-0.039,1.571-0.819c0.064-0.423-0.133-0.864-0.6-0.997
	c-2.021-2.432-2.933-4.944-4.512-7.657c-0.271-0.464-0.489-0.932-0.67-1.403c-0.042-0.054-0.083-0.108-0.114-0.172
	c-0.501-1.028-0.537-2.135-0.96-3.179c-0.042-0.104-0.059-0.211-0.062-0.318c-0.156-0.25-0.283-0.513-0.317-0.804h0.005
	c-0.009,0-0.015-0.15-0.023-0.19c-0.023-0.165-0.044-0.364-0.076-0.527c-0.009-0.045-0.03-0.095-0.042-0.138
	c-0.043-0.264-0.078-0.536-0.094-0.802c-0.17-0.011-0.338-0.03-0.507-0.05c-0.607-0.4-1.512-0.442-2.273-0.533
	c-2.971-0.462-6.134-1.193-8.207-2.997c-1.722-1.498,0.29-3.759,1.985-4.289c2.081-0.653,4.445-0.854,6.67-0.911
	c0,0.103,0.003,0.206,0.006,0.309c0.131-0.042,0.269-0.074,0.412-0.086c0.518-0.046,1.036-0.062,1.554-0.068
	c-0.038-5.27-0.404-10.542-0.284-15.812c0.588-0.232,0.634-1.061,0.165-1.507c-0.65-0.143-1.286-0.325-1.91-0.55
	c-0.025,0.033-0.057,0.059-0.077,0.097c-2.659-0.327-5.295-0.862-7.848-1.629c-2.57-1.204-0.595-4.793,1.525-5.357
	c0.953-0.253,2.038-0.213,3.017-0.289c1.338-0.102,3.166-0.431,4.429,0.106c0.229,0.098,0.447,0.095,0.648,0.051
	c0.022-0.05,0.048-0.101,0.064-0.149c0.098-0.266,0.189-0.535,0.248-0.811c0.038-0.187,0.033-0.102,0.041-0.358
	c0.003-0.108,0.019-0.209,0.043-0.304c-0.02-0.01-0.028-0.026-0.051-0.034c-0.007-0.003-0.014-0.005-0.021-0.008
	c-0.048-0.069-0.101-0.136-0.163-0.191c-0.27-1.1,0.179-3.431,0.181-4.274c0.006-2.905,0.252-5.768,1.491-8.426
	c0.408-0.123,0.724-0.405,0.724-0.864c0-0.458-0.451-0.995-0.985-0.93c-0.6,0.073-1.202,0.077-1.807,0.077
	c-0.166,0-0.309,0.036-0.432,0.093c-7.21,0.068-14.467,0.459-21.648-0.248c-0.069-0.007-0.125,0.005-0.187,0.009
	c-0.616-0.242-1.298,0.252-1.349,0.831c-0.186,0.194-0.27,0.467-0.154,0.802c0.987,2.843,1.779,5.767,3.132,8.479
	c-1.444,7.146-0.379,14.301-0.459,21.491c-0.079,7.12,0.511,16.158,0.025,23.268c-0.241,0.04-0.47,0.176-0.629,0.438
	c-7.123,11.738-11.306,22.507-17.593,34.638c-3.105,5.995-6.723,11.746-9.495,17.891c-1.695,3.76-2.73,7.866-4.728,11.499
	c-0.095,0.099-0.175,0.22-0.223,0.376c-0.003,0.01-0.006,0.019-0.009,0.028c-0.131,0.229-0.252,0.462-0.393,0.685
	c0.03-0.009,0.056-0.024,0.087-0.034c0.04-0.012,0.076-0.015,0.115-0.023c-1.33,4.373-2.474,8.388-1.333,12.958
	c0.701,2.807,2.76,6.704,5.683,8.15c0.076,0.142,0.168,0.28,0.297,0.417c0.245,0.26,0.53,0.318,0.795,0.271
	c5.092-0.416,10.61,0.897,15.825,0.725c6.874-0.228,13.75-0.431,20.628-0.534c11.092-0.163,22.442,0.308,33.526,1.304
	c0.042-0.053,0.1-0.091,0.145-0.141c1.452-0.179,2.945-0.042,4.407-0.171c1.299-0.114,2.575-0.294,3.836-0.578
	c0.026,0.039,0.062,0.074,0.083,0.117c0.103-0.065,0.198-0.144,0.298-0.212c0.21-0.051,0.42-0.096,0.627-0.154
	c0.491-0.135,0.689-0.507,0.684-0.882c1.755-1.611,3.072-3.746,3.857-5.871C172.067,177.289,169.512,171.587,166.656,165.674z
	 M163.643,189.003c-2.802,0.587-5.572,0.402-8.41,0.785c-0.024,0.004-0.039,0.018-0.063,0.021
	c-10.915-0.954-22.056-1.371-32.978-1.261c-6.26,0.064-12.529,0.24-18.786,0.464c-3.076,0.109-6.134,0.204-9.212,0.1
	c-2.675-0.089-5.236-0.862-7.9-0.774c-0.177-0.291-0.51-0.476-0.857-0.492c-2.851-1.317-4.258-5.695-4.886-8.211
	c-0.93-3.726,0.71-7.688,1.8-11.233c1.321-2.346,2.308-4.873,3.2-7.385c2.388-6.731,6.019-12.757,9.415-19.062
	c7.024-13.044,11.523-24.939,19.238-37.653c0.015-0.023,0.027-0.046,0.04-0.07c0.422-0.072,0.817-0.352,0.856-0.863
	c0.51-6.819-0.107-15.545-0.032-22.375c0.081-7.189-0.942-14.617,0.317-21.756c0.158-0.108,0.279-0.258,0.358-0.426
	c-0.058-0.267-0.08-0.534-0.045-0.798c-1.401-2.545-2.174-5.342-3.083-8.069c7.13,0.655,14.331,0.265,21.485,0.205
	c-0.988,2.618-1.224,5.361-1.26,8.196c-0.014,1-0.311,2.634-0.214,3.982c-1.27-0.086-2.584,0.081-3.848,0.178
	c-1.661,0.126-3.755,0.093-5.024,1.312c-2.183,2.094-3.313,6.344,0.214,7.811c0.033,0.014,0.064,0.011,0.097,0.021
	c0.049,0.024,0.083,0.057,0.139,0.074c2.714,0.825,5.519,1.373,8.347,1.715c-0.111,4.634,0.148,9.27,0.245,13.905
	c-2.656,0.055-5.771,0.264-8.104,1.321c-2.014,0.914-3.729,3.434-2.973,5.551c0.771,2.155,3.589,3.172,5.646,3.849
	c1.527,0.504,3.113,0.852,4.712,1.13c0.087,0.028,0.175,0.056,0.269,0.067c0.071,0.009,0.146,0.012,0.223,0.016
	c0.181,0.03,0.36,0.063,0.542,0.091c0.064,2.166,1.303,4.216,2.268,6.269c1.271,2.708,2.198,5.188,4.154,7.548
	c-5.646,0.141-12.52,0.594-10.318,7.899c1.812,6.011,12.021,4.691,17.036,4.389c0.944,2.303,2.076,4.525,3.28,6.718
	c-2.049-0.282-4.177-0.003-6.266,0.149c-0.206-0.169-0.487-0.247-0.838-0.116c-0.139,0.051-0.249,0.125-0.379,0.184
	c-0.114,0.005-0.229,0.012-0.344,0.015c-0.567,0.011-0.867,0.394-0.928,0.805c-3.212,2.967-0.633,9.477,3.765,10.468
	c0.132,0.307,0.412,0.559,0.856,0.581c2.967,0.162,5.943,0.085,8.906,0.274c0.358,3.33,3.238,5.922,5.033,8.793
	c-4.479,0.05-10.396,0.629-9.295,5.976c1.135,5.513,8.917,6.417,14.48,6.404c2.12,4.374,4.255,8.501,4.27,13.419
	C168.802,182.399,166.747,186.745,163.643,189.003z"/>
<path fill="#5D5D5D" d="M76.783,63.887c-11.339-0.978-18.371,8.666-19.506,18.972c-0.044,0.406,0.139,0.666,0.4,0.809
	c0.799,4.524,3.226,8.89,5.739,12.636c3.176,4.735,8.191,5.651,13.544,5.002c11.489-1.394,18.616-8.985,18.558-20.711
	C95.47,70.258,86.064,64.688,76.783,63.887z M80.124,98.688c-6.293,1.487-11.862,1.306-15.695-4.408
	c-2.353-3.506-4.621-7.922-5.001-12.143c-0.006-0.066-0.036-0.114-0.051-0.174c1.257-8.621,6.809-16.002,16.157-16.15
	c8.995-0.142,17.401,5.387,18.016,14.781C94.138,89.565,88.648,96.674,80.124,98.688z"/>
<path fill="#6DBBB7" d="M172.45,159.56c0.05-0.198,0.04-0.418-0.098-0.647c-6.453-10.762-12.042-21.984-17.183-33.354
	c-2.322-5.135-4.752-10.303-7.215-15.374c-1.581-3.254-4.964-7.322-4.772-11.002c0.021-0.424-0.216-0.69-0.527-0.813
	c-1.535-5.266-0.965-11.235-0.95-16.62c0.021-8.008,0.933-15.975-0.024-23.943c0.038-0.143,0.047-0.298-0.011-0.478
	c-0.06-0.182-0.1-0.363-0.127-0.546c-0.002-0.012-0.004-0.026-0.006-0.04c-0.367-2.827,3.117-5.623,4.805-7.574
	c0.149-0.174,0.222-0.362,0.235-0.547c1.881-2.956,2.09-6.749-1.666-8.583c-0.536-0.261-1.033-0.031-1.296,0.336
	c-12.496-0.017-24.989-0.176-37.479,0.217c-0.155-0.131-0.357-0.222-0.631-0.215c-1.658,0.043-3.122,0.608-4.058,1.94
	c-0.779,1.109-0.704,2.494-0.262,3.704c-0.076,0.213-0.086,0.455,0.033,0.708c1.756,3.731,3.758,7.342,4.336,11.44
	c0.047,0.321,0.233,0.544,0.47,0.691c-0.119,0.142-0.206,0.541-0.206,0.773c0.01,13.132,0.232,26.136,0.257,39.597
	c-0.12,0.102-0.227,0.226-0.289,0.402c-4.249,12.033-11.989,23.156-17.631,34.643c-4.882,9.941-11.781,19.16-15.196,29.696
	c-0.184,0.104-0.34,0.263-0.418,0.511c-0.938,3.002-3.074,5.874-3.236,9.079c-0.174,3.438,0.033,6.777,0.85,10.135
	c1.227,5.037,4.92,10.66,9.776,13.313c-0.051,0.403,0.137,0.815,0.687,0.924c5.557,1.105,11.451,0.364,17.097,0.562
	c7.973,0.278,15.945,0.579,23.921,0.814c8.043,0.238,16.091,0.323,24.136,0.519c4.127,0.101,8.238,0.374,12.361,0.081
	c3.097-0.218,6.154-0.685,9.246-0.901c0.285,0.268,0.713,0.414,1.173,0.227c0.263-0.107,0.501-0.229,0.752-0.342
	c0.313-0.014,0.549-0.139,0.703-0.319C184.976,191.1,178.605,171.182,172.45,159.56z M168.811,197.057
	c-6.488,0.215-12.757,1.226-19.294,1.017c-8.059-0.258-16.124-0.346-24.185-0.528c-7.998-0.181-15.993-0.504-23.987-0.783
	c-6.233-0.217-13.075,0.551-19.257-0.472c-0.057-0.205-0.198-0.394-0.465-0.521c-5.383-2.562-8.6-8.593-9.898-13.925
	c-0.718-2.947-0.744-6.411-0.269-9.392c0.378-2.369,1.95-4.642,2.797-6.954c0.191-0.104,0.354-0.268,0.434-0.523
	c3.458-11.086,10.823-20.915,15.951-31.354c5.289-10.768,12.441-21.146,16.629-32.372c0.416-0.055,0.784-0.272,0.783-0.673
	c-0.011-13.946-0.252-27.373-0.262-40.945c-0.001-0.336-0.162-0.682-0.385-0.83c0.092-0.138,0.152-0.361,0.121-0.583
	c-0.599-4.24-2.494-7.97-4.323-11.819c0.067-0.207,0.072-0.44-0.048-0.682c-0.83-1.681,0.051-3.115,1.787-3.415
	c0.149,0.101,0.327,0.173,0.563,0.166c12.967-0.428,25.938-0.244,38.909-0.233c0.127,0,0.232-0.03,0.334-0.063
	c1.971,1.582,1.282,4.239-0.292,6.147c-0.066,0.08-0.111,0.164-0.148,0.248c-1.944,2.118-4.56,4.634-4.758,7.443
	c-0.036,0.127-0.05,0.267-0.026,0.418c0.005,0.025,0.008,0.052,0.012,0.077c0.009,0.288,0.057,0.58,0.123,0.875
	c1.16,8.392,0.096,16.864,0.074,25.292c-0.015,5.542-0.544,11.634,1.269,16.989c0.052,0.153,0.135,0.272,0.231,0.368
	c0.239,2.973,2.397,6.086,3.743,8.601c2.592,4.838,4.651,9.977,7.077,14.898c5.928,12.026,11.379,24.163,18.266,35.749
	c-0.031,0.181-0.022,0.372,0.087,0.574C176.219,170.557,183.149,189.979,168.811,197.057z"/>
<path fill="#5D5D5D" d="M98.987,47.959c-1.469,0.93-2.878,2.055-4.527,2.649c-2.705-1.357-5.389-2.746-7.874-4.484
	c-0.245-0.171-0.486-0.205-0.699-0.152c-0.954-3.581-2.034-7.196-2.116-10.925c-0.015-0.663-0.558-0.972-1.071-0.942
	c-0.008-0.001-0.012-0.007-0.02-0.008c-3.461-0.607-7.759,1.361-10.957-0.268c-0.295-0.15-0.578-0.141-0.819-0.042
	c-0.56-0.182-1.334,0.115-1.397,0.892c-0.327,4.054-2.423,7.675-3.084,11.666c-0.039,0.232,0.013,0.429,0.097,0.605
	c-2.497,0.813-4.951,1.743-7.436,2.592c-0.232-0.084-0.5-0.087-0.778,0.047c-1.593,0.769-4.612-1.521-5.861-2.318
	c-1.63-1.041-3.244-2.228-4.606-3.614c-0.258-0.687-1.315-1.027-1.773-0.199C44,47.193,38.937,47.851,36.7,51.564
	c-0.323,0.536-0.074,1.042,0.337,1.296c1.857,3.675,4.328,6.99,6.286,10.61c-1.387,2.621-2.249,5.435-2.94,8.321
	c-0.033,0.139-0.03,0.264-0.014,0.383c-4.021,1.597-8.021,3.237-12.266,4.152c-0.703,0.151-0.825,0.819-0.587,1.327
	c-0.625,3.444-0.507,6.941-0.497,10.429c0.002,0.855,0.889,1.121,1.472,0.824c3.569,2.122,8.165,1.757,12.04,3.008
	c0.076,0.025,0.14,0.016,0.21,0.023c0.335,3.017,1.597,6.081,3.272,8.598c-0.007,0.027-0.023,0.044-0.028,0.074
	c-0.696,4.327-5.716,6.764-7.168,10.896c-0.135,0.246-0.146,0.531,0.014,0.796c0.04,0.074,0.094,0.134,0.154,0.192
	c0.02,0.019,0.026,0.041,0.048,0.061c3.019,2.494,5.964,5.071,8.826,7.744c0.567,0.53,1.305,0.213,1.583-0.311
	c3.782-0.812,6.831-3.632,9.877-5.839c0.049-0.035,0.089-0.075,0.129-0.114c2.857,1.779,6.079,2.778,9.1,4.237
	c0.386,3.973,2.123,7.636,2.616,11.596c0.126,1.014,1.441,1.196,1.847,0.556c3.765,0.549,7.6,0.265,11.386,0.07
	c0.866-0.046,1.127-0.976,0.806-1.541c1.418-3.327,1.974-6.951,3.53-10.216c2.921-0.347,5.901-1.537,8.086-3.523
	c0.529,0.309,1.11,0.501,1.726,0.654c1.231,0.31,1.755-1.591,0.522-1.898c-0.545-0.138-1.122-0.252-1.546-0.647
	c-0.492-0.459-1.107-0.277-1.445,0.119c-0.167,0.031-0.334,0.096-0.488,0.241c-1.89,1.782-4.655,2.891-7.229,3.133
	c-0.194,0.019-0.348,0.091-0.482,0.185c-0.284,0.008-0.559,0.14-0.729,0.483c-1.713,3.451-2.216,7.305-3.782,10.807
	c-0.045,0.101-0.054,0.197-0.067,0.294c-3.458,0.194-6.985,0.426-10.403-0.158c-0.734-3.747-2.333-7.312-2.463-11.164
	c-0.026-0.775-0.774-1.073-1.34-0.898c-3.032-1.413-6.241-2.425-9.053-4.275c-0.468-0.308-0.919-0.151-1.19,0.18
	c-0.167-0.001-0.345,0.05-0.525,0.181c-2.915,2.111-5.864,4.917-9.49,5.664c-0.125,0.026-0.221,0.078-0.312,0.134
	c-2.482-2.292-5.022-4.52-7.621-6.681c1.651-3.857,6.287-6.104,6.983-10.432c0.032-0.199-0.003-0.373-0.064-0.53
	c0.168-0.263,0.199-0.602-0.036-0.95c-1.557-2.307-2.845-5.175-3.107-7.968c-0.055-0.584-0.512-0.886-0.973-0.928
	c-0.061-0.319-0.255-0.614-0.651-0.742c-3.776-1.22-8.417-0.783-11.832-2.963c-0.081-0.052-0.162-0.085-0.24-0.111
	c-0.028-2.979-0.086-5.975,0.459-8.91c4.251-1.014,8.272-2.706,12.333-4.308c0.672-0.265,0.777-1,0.529-1.495
	c0.714-2.964,1.588-5.848,3.121-8.504c0.34-0.588,0.009-1.134-0.466-1.358c-1.928-3.542-4.332-6.798-6.164-10.393
	c2.099-2.805,5.956-3.709,8.198-6.407c1.756,1.661,3.825,3.069,5.88,4.28c1.593,0.938,3.784,2.138,5.714,1.69
	c0.184,0.086,0.401,0.119,0.658,0.033c2.771-0.936,5.498-1.995,8.285-2.882c0.667-0.211,0.794-0.88,0.582-1.376
	c0.098-0.112,0.179-0.249,0.21-0.441c0.63-3.805,2.432-7.271,3.009-11.071c3.361,1.319,7.023-0.322,10.519,0.159
	c0.223,3.652,1.255,7.204,2.188,10.729c0.161,0.606,0.706,0.783,1.177,0.662c0.065,0.178,0.187,0.345,0.376,0.478
	c2.659,1.859,5.545,3.322,8.44,4.771c0.44,0.22,0.855,0.095,1.136-0.169c1.749-0.667,3.242-1.769,4.813-2.767
	C101.049,48.982,100.062,47.276,98.987,47.959z"/>
</svg>
