<?xml version="1.0" encoding="utf-8"?>
<!-- Generator: Adobe Illustrator 16.0.0, SVG Export Plug-In . SVG Version: 6.00 Build 0)  -->
<!DOCTYPE svg PUBLIC "-//W3C//DTD SVG 1.1//EN" "http://www.w3.org/Graphics/SVG/1.1/DTD/svg11.dtd">
<svg version="1.1" id="Layer_1" xmlns="http://www.w3.org/2000/svg" xmlns:xlink="http://www.w3.org/1999/xlink" x="0px" y="0px" preserveAspectRatio="xMidyMid meet" viewBox="0 0 180 200" enable-background="new 0 0 180 200" xml:space="preserve">
<path fill="#FF6633" d="M89.296,22.548c-1.568-5.529-7.192-5.968-12.068-5.976c-0.112,0-0.2,0.032-0.293,0.059
	c-0.179-0.02-0.366-0.01-0.563,0.081c-15.438,7.104-31.708,12.046-47.739,17.594c-0.186,0.063-0.319,0.169-0.429,0.29
	c-9.517,4.03-2.056,23.527,8.021,18.25c0.299-0.158,0.45-0.39,0.495-0.639c0.062-0.016,0.122-0.014,0.186-0.042
	c15.769-6.967,32.198-12.262,48.079-18.954c0.057-0.024,0.106-0.054,0.155-0.084c0.03-0.01,0.059-0.006,0.089-0.019
	C89.384,31.345,90.439,26.577,89.296,22.548z M84.216,31.336c-15.974,6.715-32.484,12.061-48.34,19.066
	c-0.325,0.144-0.476,0.379-0.514,0.632c-0.056,0.019-0.11,0.019-0.167,0.049c-7.633,3.997-13.516-12.401-5.679-14.81
	c0.183-0.056,0.317-0.151,0.427-0.262c15.857-5.468,31.915-10.417,47.188-17.417c0.035,0.003,0.06,0.02,0.097,0.02
	c4.083,0.007,8.459,0.042,10.099,4.478C88.485,26.223,87.361,29.988,84.216,31.336z"/>
<path fill="#FF6633" d="M93.354,35.654c-0.202-0.033-0.419-0.017-0.646,0.116c-8.928,5.203-19.078,8.247-28.456,12.575
	c-10.334,4.769-20.614,9.982-31.875,12.164c-0.335,0.065-0.542,0.248-0.648,0.474c-1.624,0.484-3.365,1.906-4.486,2.705
	c-2.244,1.596-3.413,3.221-3.525,6.021c-0.236,5.837,6.822,11.547,12.334,11.182c0.528-0.035,0.833-0.392,0.936-0.796
	c5.319-1.179,10.062-3.749,14.956-6.071c6.052-2.871,12.728-4.652,19.048-6.849c10.637-3.7,21.459-7.858,31.072-13.808
	c0.284,0.315,0.735,0.459,1.205,0.161C112.983,47.363,102.951,33.126,93.354,35.654z M103.038,51.178
	c-0.286-0.269-0.707-0.372-1.142-0.095c-9.7,6.16-20.643,10.328-31.448,14.121c-5.864,2.058-11.875,3.833-17.622,6.201
	c-5.603,2.309-10.704,5.54-16.706,6.8c-0.408,0.085-0.615,0.347-0.689,0.648c-4.305-0.077-8.267-3.853-9.483-7.797
	c-0.887-2.878,0.865-4.567,2.975-6.069c0.901-0.642,2.884-2.24,4.065-2.132c0.502,0.046,0.807-0.228,0.922-0.586
	c9.935-2.089,19.185-6.468,28.336-10.746c10.275-4.803,21.438-8.187,31.264-13.867c0.104,0.004,0.208,0.011,0.323-0.021
	C100.88,35.728,109.327,46.01,103.038,51.178z"/>
<path fill="#FF6633" d="M98.989,61.459c-0.291-0.276-0.722-0.405-1.177-0.167c-13.737,7.171-28.965,12.786-43.58,17.921
	c-5.124,1.8-10.225,3.377-15.439,4.873c-3.621,1.039-7.787,2.294-10.088,5.477c-0.167,0.231-0.21,0.46-0.175,0.666
	c-2.474,3.478-2.683,8.646,0.376,11.962c2.311,2.506,5.06,3.34,8.351,3.872c7.496,1.21,8.641,6.526,8.664,13.282
	c0.005,1.313,2.04,1.315,2.041,0.006c5.68,0.035,11.356,0.247,17.017-0.346c1.295-0.135,1.309-2.179,0-2.041
	c-5.67,0.594-11.354,0.381-17.044,0.345c-0.127-4.54-0.836-9.057-4.927-11.763c-2.176-1.439-5.339-1.428-7.81-1.926
	c-6.081-1.227-8.673-8.72-4.208-13.16c0.247-0.245,0.32-0.525,0.289-0.79c3.094-3.056,8.929-3.878,12.831-4.933
	c5.95-1.609,11.77-3.898,17.549-6.026c12.271-4.519,24.946-9.337,36.585-15.354c0.195,0.114,0.425,0.182,0.697,0.14
	c7.736-1.213,10.61,7.564,6.153,12.928c-0.251,0.303-0.281,0.642-0.198,0.946c-6.204,4.418-13.518,6.853-20.657,9.357
	c-8.727,3.061-17.082,7.41-25.997,9.853c-0.977,0.267-0.875,1.487-0.199,1.879c0.032,0.056,0.045,0.113,0.089,0.167
	c3.698,4.496,6.546,11.118,5.522,17.044c-0.223,1.286,1.745,1.838,1.969,0.542c1.094-6.331-1.503-13.076-5.329-18.118
	c8.356-2.499,16.263-6.499,24.487-9.399c7.703-2.717,15.675-5.295,22.231-10.329c0.517-0.398,0.516-1.044,0.255-1.487
	C111.864,70.034,107.9,60.496,98.989,61.459z"/>
<path fill="#FF6633" d="M96.985,102.228c2.412-5.193,0.907-11.426-5.192-12.453c-0.036-0.006-0.064,0.006-0.099,0.003
	c-0.059-0.011-0.106-0.038-0.172-0.04c-16.505-0.465-22.579,19.907-20.704,33.706c-5.125,0.058-10.244,0.291-15.369,0.324
	c-3.288,0.021-7.722,1.935-11.03,0.916c-0.147-0.116-0.318-0.21-0.541-0.235c-0.033-0.004-0.063-0.002-0.096-0.004
	c-0.138-0.064-0.277-0.122-0.41-0.195c-0.477-0.271-0.923-0.116-1.211,0.195c-3.872,0.438-5.989,3.985-7.435,7.561
	c-0.2,0.493,0.011,0.863,0.357,1.062c0.232,5.425,1.218,10.791,1.309,16.225c0.005,0.295,0.121,0.515,0.283,0.676
	c0.539,2.144,1.419,4.172,3.036,5.747c1.777,1.729,4.265,2.391,6.662,2.309c0.876,5.031,0.907,10.325,0.909,15.43
	c0,0.58,0.656,0.819,1.225,0.739c2.827,7.246,5.63,13.723,14.868,14.457c10.55,0.837,17.103-6.431,19.943-15.946
	c0.083-0.277,0.039-0.513-0.063-0.708c0.277-4.173-1.238-10.854,2.154-12.863c0.101,0.022,0.202,0.044,0.327,0.028
	c4.552-0.536,7.696-3.723,9.729-7.651c0.028-0.056,0.028-0.107,0.046-0.161c0.003-0.008,0.005-0.016,0.008-0.023
	c0.08-0.256-0.262-0.495-0.359-0.702c-0.051-0.14-0.553-0.271-0.553-0.375v-0.275c0-0.052,0.307-0.09,0.301-0.14
	c-0.092-2.389-0.223-4.72-0.062-7.17c0.197-3.071,0.626-6.102,0.411-9.181c-0.329-4.689-3.012-7.637-7.224-9.198
	c-0.015-0.115-0.015-0.231-0.074-0.349c-1.524-3.041,0.387-10.471,1.852-12.933C91.774,107.702,95.302,105.854,96.985,102.228z
	 M88.058,109.971c-2.331,3.07-3.604,11.479-1.842,14.995c0.076,0.149,0.171,0.263,0.278,0.345c0.057,0.341,0.258,0.662,0.673,0.804
	c6.199,2.137,6.448,7.242,6.078,12.904c-0.267,4.084-0.022,7.891-0.022,11.975c0,0.098,0.02,0.186,0.054,0.263
	c-1.652,2.892-4.061,5.452-7.541,5.862c-0.124,0.017-0.225,0.06-0.325,0.105c-0.255-0.111-0.556-0.129-0.871,0.034
	c-5.339,2.771-2.14,11.386-3.532,15.924c-0.004,0.017,0,0.028-0.004,0.044c-2.535,7.562-7.6,13.527-16.221,13.493
	c-9.884-0.038-12.18-7.685-15.156-15.237c-0.072-0.184-0.184-0.315-0.311-0.421c-0.029-5.059-0.191-9.396-1.051-14.044
	c-0.004-0.021-0.017-0.117-0.022-0.14c0.049-0.546-0.261-1.141-0.962-1.076c-2.205,0.203-4.391-0.007-6.127-1.51
	c-1.689-1.464-2.336-3.833-2.756-5.935c-0.196-5.581-1.234-11.104-1.324-16.695c1.237-2.792,2.978-5.3,6.278-5.196
	c2.557,0.886,5.608,0.147,8.196-0.224c6.415-0.919,13.131-0.741,19.621-0.768c0.326,1.183,2.192,0.643,1.939-0.614
	c-2.504-12.424,2.561-33.424,18.308-33.077c5.379,1.019,5.262,6.28,3.365,10.361C93.332,105.267,90.109,107.269,88.058,109.971z"/>
<path fill="#B29167" d="M42.877,129.931c-0.604,0.331-1.125,0.881-1.623,1.348c-0.589,0.555-1.162,1.127-1.733,1.699
	c-0.932,0.931,0.512,2.374,1.443,1.443c0.533-0.532,1.068-1.062,1.613-1.583c0.428-0.409,0.969-0.945,1.331-1.145
	C45.061,131.057,44.031,129.294,42.877,129.931z"/>
<path fill="#B29167" d="M47.132,130.09c-2.721,2.438-4.904,5.418-7.611,7.874c-0.977,0.886,0.471,2.325,1.443,1.444
	c2.708-2.457,4.891-5.436,7.612-7.875C49.559,130.653,48.109,129.213,47.132,130.09z"/>
<path fill="#B29167" d="M53.169,128.251c-4.222,4.013-7.98,8.465-12.074,12.601c-0.927,0.935,0.517,2.381,1.444,1.443
	c3.486-3.521,6.746-7.258,10.238-10.771c0.346,0.036,0.707-0.082,0.945-0.458c0.337-0.537,0.712-1.041,1.05-1.576
	C55.406,128.483,53.994,127.468,53.169,128.251z"/>
<path fill="#B29167" d="M57.74,130.906c-0.907-0.161-1.253,0.308-1.976,0.871c-1.611,1.259-3.1,2.67-4.556,4.103
	c-2.767,2.718-5.28,5.688-7.84,8.602c-0.239,0.05-0.458,0.205-0.595,0.515c-0.036,0.096-0.073,0.191-0.109,0.287
	c-0.086,0.098-0.17,0.195-0.256,0.293c-0.729,0.817,0.263,2.333,1.237,1.604c0.081-0.062,0.139-0.112,0.203-0.166
	c0.001,0.002,0.003,0.004,0.004,0.006c0.008-0.01,0.016-0.018,0.024-0.027c0.165-0.14,0.285-0.277,0.386-0.437
	c2.088-2.357,4.145-4.738,6.282-7.049c1.148-1.24,2.345-2.431,3.568-3.598c0.233-0.222,1.636-1.575,2.467-2.398
	c0.443,0.279,1.046,0.261,1.342-0.345c0.113-0.27,0.256-0.522,0.428-0.76C58.684,131.885,58.38,131.02,57.74,130.906z"/>
<path fill="#B29167" d="M63.508,127.935c-1.339,2.383-3.266,3.826-5.364,5.481c-1.867,1.474-3.268,3.472-4.714,5.338
	c-3.089,3.983-6.17,8.572-10.815,10.861c-1.181,0.58-0.146,2.343,1.031,1.763c4.448-2.191,7.488-6.339,10.453-10.172
	c1.711-2.215,3.339-4.538,5.49-6.347c2.189-1.84,4.262-3.363,5.683-5.895C65.917,127.815,64.153,126.787,63.508,127.935z"/>
<path fill="#B29167" d="M86.24,95.182c-2.559,2.178-5.223,4.235-7.874,6.299c-1.039,0.808,0.418,2.243,1.444,1.443
	c2.651-2.063,5.315-4.12,7.874-6.298C88.688,95.771,87.236,94.334,86.24,95.182z"/>
<path fill="#B29167" d="M91.227,95.707c-5.349,4.738-11.278,8.775-16.273,13.912c-0.918,0.942,0.524,2.389,1.443,1.443
	c4.995-5.137,10.925-9.174,16.273-13.912C93.658,96.276,92.208,94.837,91.227,95.707z"/>
<path fill="#B29167" d="M89.915,100.957c-5.19,5.52-10.4,11.166-16.592,15.589c-1.061,0.758-0.043,2.528,1.031,1.763
	c6.342-4.53,11.687-10.253,17.004-15.908C92.26,101.441,90.819,99.995,89.915,100.957z"/>
<path fill="#B29167" d="M84.403,112.767c-3.18,3.128-6.78,5.806-9.711,9.186c-0.858,0.991,0.58,2.441,1.443,1.444
	c2.932-3.38,6.532-6.058,9.712-9.187C86.786,113.287,85.342,111.843,84.403,112.767z"/>
<path fill="#B29167" d="M82.303,119.853c-6.308,5.198-12.706,10.389-18.274,16.393c-5.243,5.653-9.939,12.144-16.953,15.732
	c-1.172,0.599-0.139,2.361,1.031,1.763c6.236-3.19,10.764-8.628,15.333-13.788c6.121-6.915,13.194-12.793,20.307-18.655
	C84.763,120.459,83.31,119.024,82.303,119.853z"/>
<path fill="#B29167" d="M82.565,125.365c-10.266,10.632-22.442,19.298-31.393,31.178c-0.793,1.053,0.981,2.07,1.763,1.031
	c8.835-11.727,20.94-20.27,31.074-30.766C84.924,125.861,83.481,124.416,82.565,125.365z"/>
<path fill="#B29167" d="M86.24,128.779c-11.309,11.974-24.244,22.294-35.17,34.645c-0.869,0.981,0.57,2.431,1.444,1.444
	c10.927-12.349,23.861-22.672,35.17-34.646C88.587,129.265,87.146,127.819,86.24,128.779z"/>
<path fill="#B29167" d="M88.339,134.027c-5.345,6.185-10.513,12.107-16.419,17.782c-6.203,5.96-13.851,11.268-19.275,17.914
	c-0.825,1.011,0.61,2.464,1.443,1.443c5.042-6.176,12.1-10.989,17.848-16.536c6.377-6.153,12.062-12.467,17.847-19.16
	C90.64,134.479,89.202,133.03,88.339,134.027z"/>
<path fill="#B29167" d="M89.755,139.482c-4.375,6.592-11.04,11.33-16.68,16.771c-6.688,6.452-12.804,13.483-19.119,20.293
	c-0.894,0.965,0.546,2.41,1.443,1.443c6.321-6.815,12.497-13.765,19.12-20.293c5.739-5.656,12.495-10.398,16.998-17.184
	C92.249,139.413,90.479,138.391,89.755,139.482z"/>
<path fill="#B29167" d="M89.127,145.576c-11.837,10.446-21.223,23.2-32.021,34.646c-0.903,0.957,0.538,2.402,1.443,1.443
	c10.798-11.445,20.184-24.199,32.021-34.646C91.56,146.146,90.11,144.708,89.127,145.576z"/>
<path fill="#B29167" d="M77.054,165.524c-4.763,5.868-9.638,11.687-15.223,16.797c-0.974,0.892,0.475,2.331,1.444,1.443
	c5.585-5.11,10.46-10.929,15.223-16.797C79.319,165.955,77.884,164.5,77.054,165.524z"/>
<path fill="#B29167" d="M77.316,171.035c-3.354,3.173-5.975,6.969-8.924,10.498c-0.838,1.004,0.599,2.457,1.444,1.444
	c2.95-3.529,5.57-7.326,8.924-10.499C79.718,171.571,78.272,170.129,77.316,171.035z"/>
<path fill="#FF6633" d="M9.263,45.314c-1.713,0.282-3.842-0.799-5.387-1.416c-0.951-0.38-2.492-1.47-3.462-0.685
	c-1.024,0.828,0.43,2.263,1.443,1.444c-0.612,0.495-1.158,0.149-0.562,0.372c0.289,0.108,0.573,0.233,0.858,0.352
	C3,45.733,3.848,46.079,4.708,46.397c1.606,0.595,3.37,1.169,5.097,0.884C11.102,47.068,10.55,45.102,9.263,45.314z"/>
<path fill="#FF6633" d="M60.219,1.153c-0.038,2.373-0.486,4.714-0.525,7.087c-0.021,1.317,2.021,1.315,2.042,0
	c0.039-2.373,0.486-4.714,0.525-7.087C62.282-0.164,60.24-0.162,60.219,1.153z"/>
<path fill="#FF6633" d="M124.757,41.34c-1.94,0.052-3.826,0.729-5.774,0.524c-1.309-0.139-1.295,1.905,0,2.042
	c1.954,0.207,3.832-0.472,5.774-0.524C126.071,43.347,126.076,41.305,124.757,41.34z"/>
<path fill="#FF6633" d="M108.157,11.717c-0.362-0.362-1.094-0.434-1.444,0c-0.929,1.15-1.938,2.21-3.205,2.99
	c-1.119,0.688-0.095,2.455,1.031,1.763c1.415-0.87,2.578-2.021,3.618-3.309C108.506,12.728,108.581,12.142,108.157,11.717z"/>
<path fill="#FF6633" d="M26.907,17.265c-0.046-0.067-0.099-0.146-0.186-0.27c-0.38-0.541-0.718-1.107-1.083-1.659
	c-0.723-1.093-2.492-0.071-1.763,1.031c0.572,0.865,1.096,1.76,1.765,2.556c0.329,0.392,0.773,0.75,1.31,0.745
	c0.812-0.007,1.174-0.748,1.19-1.455C28.158,17.453,27.486,17.147,26.907,17.265z"/>
<path fill="#5D5D5D" d="M162.042,25.344c-9.271-8.35-29.139-10.771-39.115-2.167c-0.6-0.218-1.32,0.086-1.32,0.917V38.55
	c0,1,2,1,2,0V25.363c8-8.419,27.355-6.505,36.374,0.843c-0.053,0.122-0.024,0.262-0.022,0.423
	c0.016,7.574,0.211,15.147,0.118,22.722c-0.088,7.206-1.578,14.252-1.96,21.42c-11.758-3.92-21.847-2.733-33.928-0.835
	c1.11-7.833-0.003-15.715-0.092-23.587c-0.015-1.316-2.056-1.317-2.041,0c0.091,7.974,1.344,16.023,0.038,23.955
	c-0.028,0.166-0.017,0.317,0.02,0.457c-0.165,0.634,0.356,1.503,1.236,1.362c12.388-1.993,22.717-3.376,34.763,0.797
	c0.246,0.692,1.208,0.788,1.692,0.296c0.486-0.26,0.651-0.999,0.323-1.512c0.285-7.489,1.874-14.835,2.02-22.353
	c0.148-7.515-0.067-15.037-0.087-22.553C162.441,26.45,162.573,25.821,162.042,25.344z"/>
<path fill="#5D5D5D" d="M166.743,101.271c-0.189-0.542-0.326-0.867-0.668-1.443c-1.731-2.694-3.516-4.91-4.342-8.118
	c-0.91-3.538-0.464-7.208-1.682-10.702c-0.287-0.824-1.25-0.85-1.737-0.414c-12.077-3.134-25.193-4.133-37.266-0.58
	c-0.507,0.148-0.712,0.554-0.708,0.964c-0.316,0.145-0.576,0.424-0.606,0.864c-0.563,8.364-7.118,13.752-10.717,20.751
	c-0.162,0.08-0.311,0.203-0.411,0.427c-0.475,1.047-0.829,2.12-1.092,3.208c-0.043,0.14-0.099,0.273-0.139,0.415
	c-0.032,0.111-0.025,0.212-0.023,0.312c-0.832,4.137-0.241,7.706,0.682,11.84c0.073,0.335,0.269,0.829,0.402,1.432
	c1.58,7.882,5.206,15.563,7.63,23.137c4.523,14.148,5.854,28.881,12.542,42.38c0.177,0.36,0.468,0.496,0.766,0.502
	c0.285,0.31,0.73,0.445,1.194,0.146c4.255-2.741,2.484-14.141,2.44-18.278c-0.138-13.328,1.692-26.697,1.727-40.069
	c0-0.195-0.053-0.351-0.128-0.488c0.14-0.415,0.067-0.915-0.377-1.238c-4.729-3.436-7.764-6.714-6.697-12.939
	c1.029-5.993,6.773-7.525,12.048-7.262c5.371,0.268,8.833,4.716,8.994,9.778c0.083,2.646-0.567,10.325-4.729,9.476
	c-0.554-0.113-1.253-0.062-1.623,0.182c-0.441,0.186-0.618,0.664-0.553,1.106c0.005,0.268,0.039,0.566,0.039,0.821
	c-0.067,19.083-1.906,38.104-1.973,57.186c-0.002,0.48,0.271,0.779,0.614,0.911c-0.204,1.025,1.29,1.795,1.852,0.732
	c3.562-6.748,6.342-14.056,9.673-20.945c3.274-6.771,6.447-13.579,9.162-20.596C166.525,130.575,172.039,116.374,166.743,101.271z
	 M159.068,144.224c-2.769,7.457-6.305,14.623-9.764,21.776c-2.623,5.425-4.853,11.134-7.496,16.563
	c0.183-18.379,1.878-36.703,1.941-55.086c0-0.033-0.016-0.056-0.018-0.088c4.777,0.631,6.245-5.064,6.75-8.873
	c0.806-6.083-1.717-11.397-7.553-13.765c-6-2.435-13.917-0.065-16.651,5.847c-1.329,2.871-1.215,6.188-0.508,9.192
	c0.883,3.757,4.04,5.854,6.982,7.964c-0.026,0.092-0.06,0.178-0.06,0.287c-0.031,12.335-1.399,24.546-1.732,36.843
	c-0.087,3.2,0.054,6.411,0.026,9.611c-0.017,1.888,0.489,7.507-0.92,9.575c-5.83-12.063-8.153-25.363-11.203-38.311
	c-3.073-13.055-12.494-26.592-9.251-38.942c0.134-0.509,0.207-0.582,0.398-1.577c3.25-8.279,11.065-13.804,11.755-23.307
	c11.9-3.455,24.819-2.364,36.672,0.799c0.813,3.098,0.762,6.363,1.325,9.518c0.656,3.668,3.001,6.218,4.933,9.279
	c0.202,0.32,0.366,0.431,0.561,0.883C169.861,116.913,164.13,130.589,159.068,144.224z"/>
<path fill="#6DBBB7" d="M140.185,189.82c-2.042,0-5.596,0.011-8.493,0.164c-0.606-0.302-1.411-0.026-1.405,0.857
	c0.021,2.624,0.346,5.234,0.552,7.848c0.058,0.714,0.698,1.025,1.255,0.96c0.018,0.006,0.028,0.02,0.048,0.025
	c2.682,0.784,5.386,0.249,8.119,0.203c0.731-0.012,1.043-0.646,0.96-1.204c0.031-0.098,0.063-0.195,0.062-0.317
	c-0.021-2.217-0.237-4.424-0.307-6.64C142.159,191.262,141.908,189.82,140.185,189.82z M132.812,197.736
	c-0.198-1.91-0.5-3.816-0.563-5.73c2.207-0.102,4.725-0.132,6.689-0.14c0.068,2.006,0.246,4.006,0.288,6.012
	C137.076,198.003,134.918,198.313,132.812,197.736z"/>
<path fill="#6DBBB7" d="M177.937,166.546c-6.869,10.295-21.135,24.324-34.289,25.3c-0.013,0.002-0.023,0.006-0.036,0.006
	c0.217,2.155-0.125,4.235-0.175,6.387c-0.006,0.251,0.001,0.5,0.003,0.75c0.071-0.002,0.135,0.01,0.208,0.004
	c12.729-0.945,27.959-11.984,36.352-23.359V163.3C179.788,163.499,178.116,166.275,177.937,166.546z"/>
<path fill="#6DBBB7" d="M128.155,195.13c-0.048-1.232-0.132-2.545,0.034-3.799c-16.49-4.343-32.664-18.243-43.06-30.682
	c0.117,3.711,0.138,7.43,0.255,11.139c10.137,11.011,26.475,22.942,41.847,26.695c0.35,0.086,0.677,0.105,0.994,0.102
	C128.212,197.433,128.199,196.283,128.155,195.13z"/>
<path fill="#6DBBB7" d="M42.87,112.015c-10.631-5.847-30.649-9.598-42.87-7.59v7.422c12.679-2.536,32.76,1.839,43.417,8.662
	C43.183,117.682,42.979,114.852,42.87,112.015z"/>
<path fill="#DDDBBB" d="M132.974,21.433c-2.601,2.262-5.143,4.59-8.025,6.497c-1.093,0.722-0.072,2.492,1.031,1.763
	c3.027-2.001,5.706-4.438,8.438-6.815C135.413,22.011,133.962,20.572,132.974,21.433z"/>
<path fill="#DDDBBB" d="M139.156,23.03c0.01,0.311-4.987,3.447-5.675,3.897c-2.815,1.847-5.786,3.378-8.389,5.54
	c-1.013,0.843,0.438,2.278,1.443,1.444c3.191-2.651,6.999-4.412,10.329-6.873c1.1-0.814,4.385-2.337,4.333-4.008
	C141.156,21.717,139.114,21.713,139.156,23.03z"/>
<path fill="#DDDBBB" d="M146.316,23.025c-6.801,5.238-14.23,9.594-20.873,15.047c-1.019,0.835,0.435,2.272,1.444,1.443
	c6.506-5.341,13.797-9.595,20.46-14.728C148.375,23.996,147.36,22.221,146.316,23.025z"/>
<path fill="#DDDBBB" d="M152.272,24.251c-3.471,2.593-7.313,4.636-10.724,7.312c-4.68,3.671-9.022,7.771-14.322,10.553
	c-1.167,0.612-0.134,2.374,1.03,1.763c3.982-2.09,7.408-4.879,10.855-7.738c4.517-3.747,9.512-6.629,14.191-10.126
	C154.344,25.235,153.328,23.462,152.272,24.251z"/>
<path fill="#DDDBBB" d="M155.584,27.419c-1.64,2.385-4.961,3.688-7.422,5.06c-2.448,1.365-4.63,3.113-6.945,4.684
	c-5.47,3.714-11.198,6.933-15.949,11.594c-0.941,0.923,0.503,2.366,1.443,1.444c5.374-5.272,12.06-8.773,18.159-13.093
	c3.908-2.768,9.707-4.626,12.477-8.658C158.094,27.361,156.324,26.341,155.584,27.419z"/>
<path fill="#DDDBBB" d="M156.97,34.044c-4.026,4.109-9.685,6.379-14.601,9.242c-5.36,3.124-10.543,6.549-15.67,10.04
	c-1.081,0.736-0.061,2.506,1.03,1.763c5.644-3.841,11.372-7.534,17.272-10.972c4.616-2.689,9.624-4.762,13.411-8.629
	C159.334,34.546,157.891,33.102,156.97,34.044z"/>
<path fill="#DDDBBB" d="M157.495,40.349c-2.233,2.262-5.191,3.064-8.017,4.334c-2.867,1.289-5.416,3.129-8.055,4.82
	c-4.979,3.19-10.878,5.186-15.104,9.412c-0.933,0.932,0.512,2.376,1.443,1.444c4.725-4.724,11.992-7.337,17.601-10.965
	c4.268-2.76,9.975-3.954,13.575-7.601C159.864,40.855,158.421,39.411,157.495,40.349z"/>
<path fill="#DDDBBB" d="M156.619,45.954c-4.153,3.562-9.788,5.79-14.44,8.688c-5.168,3.22-10.257,6.533-15.653,9.368
	c-1.166,0.612-0.134,2.375,1.031,1.763c5.393-2.833,10.502-6.124,15.653-9.368c4.832-3.044,10.521-5.291,14.854-9.007
	C159.064,46.539,157.612,45.102,156.619,45.954z"/>
<path fill="#DDDBBB" d="M156.794,51.909c-3.075,2.86-7.547,4.593-11.207,6.594c-4.547,2.486-9.213,4.716-13.633,7.434
	c-1.12,0.688-0.095,2.455,1.031,1.763c4.905-3.016,10.096-5.5,15.145-8.26c3.397-1.857,7.25-3.429,10.107-6.086
	C159.204,52.454,157.756,51.014,156.794,51.909z"/>
<path fill="#DDDBBB" d="M156.194,58.477c-2.289,0.958-4.356,2.283-6.55,3.431c-2.371,1.241-5.011,1.816-7.355,3.152
	c-1.144,0.651-0.116,2.416,1.03,1.763c2.097-1.194,4.38-1.854,6.579-2.813c2.364-1.03,4.456-2.565,6.839-3.564
	C157.932,59.945,157.408,57.968,156.194,58.477z"/>
<path fill="#DDDBBB" d="M155.6,63.309c-1.422,0.888-2.851,1.757-4.379,2.453c-1.197,0.544-0.159,2.303,1.031,1.763
	c1.528-0.695,2.956-1.563,4.379-2.453C157.744,64.375,156.72,62.608,155.6,63.309z"/>
<path fill="#DDDBBB" d="M155.775,66.636c-0.328,0.193-0.56,0.514-0.877,0.701c-1.13,0.67-0.104,2.435,1.031,1.763
	c0.328-0.193,0.561-0.514,0.876-0.701C157.937,67.729,156.91,65.964,155.775,66.636z"/>
<path fill="#DDDBBB" d="M110.832,197.798c-0.654-0.273-2.298-0.606-2.899-0.978c-0.812-0.297-1.598-0.656-2.359-1.064H4.158
	c-0.381-0.836-1.317-1.267-2.241-1.027c-0.515-0.048-1.021,0.09-1.439,0.461c-0.609,0.542-0.573,1.516-0.243,2.188
	c0.553,1.124,1.909,1.994,3.127,1.436c0.433-0.197,0.694-0.578,0.841-1.015H110.832z"/>
<path fill="#DDDBBB" d="M179.216,194.889c-0.548-0.258-1.09-0.156-1.601,0.09c-0.193,0.004-0.387-0.075-0.576-0.022
	c-0.437,0.121-0.748,0.594-0.955,0.594h-15.73c-1.223,1-2.547,1-3.933,2h19.574c0.42,1,1.431,1.986,2.544,1.242
	c0.841-0.561,1.355-1.576,1.412-2.567C179.983,195.691,179.721,195.125,179.216,194.889z"/>
</svg>
