<?xml version="1.0" encoding="utf-8"?>
<!-- Generator: Adobe Illustrator 16.0.0, SVG Export Plug-In . SVG Version: 6.00 Build 0)  -->
<!DOCTYPE svg PUBLIC "-//W3C//DTD SVG 1.1//EN" "http://www.w3.org/Graphics/SVG/1.1/DTD/svg11.dtd">
<svg version="1.1" id="Layer_1" xmlns="http://www.w3.org/2000/svg" xmlns:xlink="http://www.w3.org/1999/xlink" x="0px" y="0px" preserveAspectRatio="xMidyMid meet" viewBox="0 0 180 200" enable-background="new 0 0 180 200" xml:space="preserve">
<path fill="#5D5D5D" d="M90.724,89.388c-3.192,0.43-6.398,0.802-9.593,1.088c-8.267,0.738-17.812,1.148-25.929-0.814
	c-0.822-0.2-1.328,0.548-1.243,1.185c-1.732,1.672-3.667,2.96-5.726,4.019c1.335-0.09,2.642-0.088,3.966-0.005
	c1.272-0.862,2.485-1.842,3.61-2.993c8.707,1.859,18.459,1.247,27.199,0.466c2.637-0.235,5.271-0.564,7.899-0.93
	C90.838,90.732,90.781,90.061,90.724,89.388z"/>
<path fill="#5D5D5D" d="M141.74,41.384c-2.23-12.036-10.957-20.712-21.315-26.769c-6.426-3.758-13.499-6.252-20.646-8.221
	c-3.902-1.075-7.761-2.288-11.689-3.271c-2.646-0.663-5.334-0.919-8.029-1.158c-0.814-0.171-1.628-0.348-2.436-0.548
	c-0.527-0.131-1.074-0.233-1.62-0.338c-0.018-0.006-0.026-0.019-0.043-0.024c-5.925-1.87-12.291-0.681-18.328-0.037
	c-7.722,0.823-15.087,2.229-22.344,5.09C23.602,10.715,11.103,18.929,5.317,30.484c-0.146,0.083-0.28,0.201-0.373,0.402
	C-0.029,41.604,2.183,54.27,7.309,64.542c3.865,7.744,11.25,17.895,20.404,19.389c-1.867,4.919-4.681,9.54-8.491,13.157
	c-1.391,1.319-4.856,4.138-3.306,6.383c0.12,0.174,0.269,0.287,0.429,0.359c0.077,0.289,0.283,0.536,0.682,0.612
	c3.08,0.573,6.186,0.33,9.258-0.285c1.749-1.437,3.687-2.6,5.713-3.604c-4.673,1.481-9.572,2.797-14.301,1.956
	c-0.012-0.021-0.02-0.041-0.033-0.062c-0.809-1.169,4.981-5.722,5.748-6.705c2.764-3.543,4.984-7.705,6.505-11.924
	c0.224-0.618-0.159-1.058-0.651-1.189c-0.147-0.303-0.416-0.553-0.831-0.599c-8.849-0.985-15.457-11.399-19.378-18.512
	c-4.9-8.887-6.717-21.035-2.791-30.586c0.101-0.084,0.188-0.198,0.258-0.348c5.24-11.501,16.807-18.862,27.927-23.938
	c7.284-3.325,15.256-4.879,23.182-5.604c5.103-0.466,10.393-1.511,15.479-0.59c0.049,0.022,0.083,0.058,0.139,0.075
	c1.233,0.377,2.574,0.508,3.833,0.843c0.2,0.053,0.404,0.091,0.604,0.14c0.049,0.033,0.093,0.071,0.137,0.107
	c0.709,0.181,1.412,0.353,2.149,0.432c0.896,0.096,1.789,0.197,2.663,0.421c0.005,0.001,0.008,0.003,0.012,0.005
	c3.304,0.453,6.586,1,9.892,1.933c7.035,1.986,14.085,3.894,20.79,6.854c12.555,5.542,24.767,15.375,26.663,29.78
	c0.021,0.162,0.073,0.302,0.146,0.423c-0.096,4.541-0.529,8.989-1.882,13.364c-1.525,4.937-5.341,9.528-8.551,13.445
	c-3.113,3.796-7.429,5.494-11.489,8.011c-1.167,0.723-2.302,1.494-3.436,2.261c0.086,0.757,0.162,1.518,0.228,2.28
	c0.983-0.658,1.963-1.331,2.953-1.991c4.584-3.056,9.532-4.839,13.176-9.129c3.216-3.787,6.709-8.139,8.489-12.812
	c2.055-5.388,2.513-10.974,2.562-16.697C142.193,41.801,142,41.54,141.74,41.384z"/>
<path fill="#5D5D5D" d="M134.172,48.106C134,29.646,115.746,16.826,99.245,13.089c-11.101-2.513-21.654-3.899-33.066-3.7
	c-4.853,0.085-9.629,0.405-14.417,1.206c-2.447,0.408-4.754,1.169-7.027,1.999c-1.682,0.455-3.615,0.913-5.261,1.499
	c-1.804,0.644-3.808,1.749-5.78,1.945c0.055,0.006,0.113,0.013,0.101,0.019c-0.085,0.006-0.041,0.022-0.126,0.025
	c-0.435,0.014-0.647,0.255-0.793,0.559c-5.38,2.837-10.133,5.775-14.639,10.371c-2.653,2.706-5.056,5.522-6.725,8.939
	c-1.292,2.644-0.739,5.854-0.742,8.754c-0.188,0.161-0.301,0.407-0.271,0.745c0.768,8.482,2.738,14.854,7.522,22.08
	c1.877,2.838,5.025,4.828,7.728,6.814c3.643,2.676,7.902,3.155,11.583,5.525c0.018,0.011,0.035,0.016,0.051,0.025
	c-0.882,4.473-2.492,8.711-5.571,12.182c-0.361,0.407-0.311,0.887-0.078,1.246c-0.151,0.687,0.345,1.503,1.189,1.206
	c6.852-2.415,13.366-5.022,19.005-9.716c7.698,1.935,16.07,2.311,23.931,1.92c6.68-0.332,14.049-0.691,20.135-3.728
	c0.135-0.038,0.268-0.075,0.399-0.121c0.053-0.01,0.104-0.02,0.156-0.029c0.014-0.015,0.032-0.03,0.047-0.044
	c1.172-0.431,2.262-1.121,3.319-1.76c1.118-0.673,0.1-2.425-1.021-1.749c-0.217,0.131-0.437,0.263-0.655,0.395
	c-0.124,0.1-2.574,1.434-3.086,1.532c-0.134,0.055-0.857,0.281-1.082,0.327c-0.013,0.021-0.037,0.037-0.048,0.058
	c-5.631,2.466-12.118,2.583-18.164,3.055c-7.965,0.622-16.884,0.003-24.582-2.113c-0.82-0.225-1.322,0.525-1.234,1.173
	c-4.631,3.723-9.899,6.021-15.41,8.039c2.706-3.716,4.188-8.048,4.946-12.631c0.158-0.946-0.872-1.486-1.503-1.181
	c-1.911-1.159-3.964-1.715-6.102-2.385c-4.193-1.318-8.306-4.984-11.371-8.021c-5.525-5.474-7.275-13.969-8.001-21.336
	c0.094-0.141,0.166-0.303,0.178-0.508c0.208-3.609-0.489-6.718,1.205-10.183c1.521-3.113,4.444-5.78,6.85-8.234
	c4.049-4.13,8.612-6.646,13.513-9.132c-0.007-0.03-0.01-0.062-0.017-0.093c1.88-0.204,3.564-1.112,5.313-1.808
	c2.857-1.137,5.913-1.723,8.849-2.613c0.29-0.088,0.476-0.265,0.586-0.475c4.358-1.026,8.865-1.475,13.322-1.64
	c9.877-0.367,19.698-0.139,29.397,1.925c4.006,0.852,8.051,1.755,11.988,2.882c4.611,1.319,9.002,4.264,13.026,6.82
	c8.729,5.547,15.235,14.361,15.335,24.955c1.013,8.754-6.736,17.794-13.622,22.36c-1.703,1.129-3.534,2.07-5.392,2.958
	c0.245,0.606,0.461,1.219,0.643,1.837c2.858-1.396,5.667-2.873,8.266-4.793C128.51,65.693,135.138,56.447,134.172,48.106z"/>
<path fill="#DDDBBB" d="M167.098,53.717c-1.927-4.165-4.705-7.782-7.694-11.238c-3.587-4.146-7.336-6.446-11.808-9.339
	c-0.463-0.299-0.907-0.161-1.188,0.149c-0.366,0.19-0.591,0.573-0.384,1.079c2.855,6.945,1.644,14.565,0.17,21.71
	c-0.862,4.18-2.099,8.167-3.87,12.054c-1.348,2.954-3.519,4.79-5.736,6.942c-0.203,0.016-0.409,0.078-0.599,0.249
	c-5.825,5.25-11.832,9.532-18.406,12.947c0.787,0.383,1.582,0.748,2.382,1.109c0.057-0.032,0.114-0.067,0.174-0.1
	c2.264,0.982,4.618,1.77,6.75,3.022c2.14,1.255,4.213,2.607,6.402,3.779c0.553,0.728,1.114,0.92,0.241,1.951
	c-0.779,0.922-1.816,1.644-2.726,2.429c-2.551,2.202-5.363,4.072-7.712,6.506c-0.099,0.101-0.156,0.207-0.203,0.316
	c-0.594,0.517-1.188,1.034-1.8,1.529c0.858-0.057,1.717-0.102,2.575-0.143c0.166,0.035,0.337,0.039,0.504-0.027
	c1.084-0.051,2.17-0.086,3.258-0.105c0.511,0.981,1.26,1.782,2.095,2.508c3.301,3.894,8.643,6.049,12.975,8.503
	c4.039,2.29,8.712,3.93,13.378,3.438c0.02,0.004,0.031,0.018,0.054,0.023c1.754,0.384,3.773,0.334,5.172-0.926
	c0.76-0.685,0.943-1.723,0.783-2.682c-0.178-1.072-1.205-1.927-1.933-2.643c-0.117-0.115-0.242-0.191-0.369-0.238
	c-0.002,0-0.002-0.003-0.004-0.003c-2.698-1.396-4.3-4.719-5.929-7.186c-2.011-3.048-3.571-6.195-4.183-9.806
	c0.034-0.022,0.071-0.042,0.104-0.07c6.656-5.298,14.274-11.861,17.645-19.856c0.104-0.243,0.102-0.457,0.034-0.636
	c0.928-4.022,2.322-7.874,2.535-12.039C170.007,62.613,168.894,57.603,167.098,53.717z"/>
<path fill="#FF6633" d="M95.681,148.215c0.023,0.004,0.053,0.008,0.109,0.018c0.102,0.018,0.314,0.035,0.423,0.039
	c0.455,0.019,0.908,0.015,1.363,0.017c0.081,0.002,0.158,0.006,0.236,0.008c0.043-6.857-1.377-13.849-3.947-19.654
	c2.563-2.395,4.874-5.023,6.458-8.123c1.776,3.505,2.965,7.289,4.354,10.96c1.55,4.102,3.04,8.275,3.04,12.709
	c0,0.345,0.145,0.588,0.35,0.752c0.472,3.268,0.39,6.616-0.089,9.961c0.504,0.238,0.967,0.556,1.418,0.907
	c0.125,0.1,0.249,0.201,0.376,0.305c0.729-3.937,0.874-7.946,0.188-12.2c-0.037-0.217-0.131-0.363-0.248-0.481
	c-0.152-4.348-1.572-8.438-3.081-12.502c-1.627-4.375-3.035-8.912-5.376-12.967c-0.054-0.221-0.187-0.2-0.376-0.314
	c-0.425-0.353-1.021-0.681-1.371,0.332c0,0,0,0-0.002,0c-0.102,0-0.188,0.037-0.232,0.18c-1.361,3.582-3.906,6.353-6.663,8.935
	c-0.655,0.016-1.338,0.728-0.958,1.524C94.429,134.425,95.777,141.385,95.681,148.215z"/>
<path fill="#FF6633" d="M95.845,182.455c-4.009,4.584-9.387,6.951-15.201,9.187c-5.689,2.187-13.505,6.794-19.896,5.695
	c-0.158-0.138-0.357-0.238-0.625-0.242c-24.199-0.306-43.004-18.179-49.91-40.648c-0.039-0.127-0.103-0.225-0.171-0.315
	c-5.856-18.837,5.788-36.588,18.772-49.08c0.077-0.073,0.116-0.156,0.162-0.235c3.106-1.373,5.896-3.449,9.066-4.814
	c5.993-2.579,11.457-4.136,18.014-4.42c5.91-0.256,11.74,0.604,17.328,2.5c3.979,1.349,9.104,2.595,12.527,5.276
	c-3.016,2.251-6.533,3.586-8.954,6.606c-17.714-9.805-45.278-3.326-53.252,16.381c-0.116,0.286-0.087,0.529,0.019,0.726
	c-2.054,9.632-4.681,20.294-0.542,29.725c-0.056,0.173-0.072,0.366,0.016,0.594c3.998,10.32,9.753,17.874,19.593,23.211
	c7.079,3.836,19.598,5.915,27.211,2.584c0.018-0.008,0.025-0.021,0.043-0.029c4.657-1.647,8.819-2.828,12.905-6.007
	c1.777-1.383,3.412-2.949,4.912-4.64c-0.526-0.471-1.035-0.964-1.539-1.462c-0.794,0.884-1.611,1.746-2.454,2.583
	c-4.667,4.628-9.892,5.894-15.787,8.085c-0.096,0.034-0.161,0.093-0.235,0.145c-7.683,2.627-18.983-0.271-25.567-3.841
	c-8.595-4.66-13.575-12.085-17.046-20.957c0.056-0.218,0.058-0.455-0.06-0.704c-4.404-9.348-1.246-20.374,0.735-29.854
	c0.015-0.07,0-0.127,0.002-0.192c7.852-18.161,34.15-23.685,50.41-14.393c0.396,0.228,0.771,0.152,1.053-0.058
	c0.346,0.036,0.712-0.081,0.965-0.431c2.529-3.503,6.928-4.728,10.095-7.519c0.752-0.661,0.086-1.644-0.705-1.687
	c-2.53-2.162-5.755-3.195-8.856-4.308c-5.771-2.075-11.203-3.757-17.339-4.256c-5.987-0.488-12.058,0.102-17.787,1.882
	c-2.303,0.715-4.521,1.751-6.728,2.71c-3.255,1.414-6.188,3.714-9.443,4.979c-0.408,0.158-0.605,0.491-0.657,0.839
	C13.482,119.161,1.83,137.716,8.26,157.236c0.045,0.139,0.116,0.246,0.194,0.341c7.24,22.805,26.315,40.787,50.793,41.513
	c6.807,1.857,14.006-2.523,20.205-4.846c6.646-2.487,12.899-4.925,17.71-10.244C96.767,183.449,96.338,182.915,95.845,182.455z"/>
<path fill="#FF6633" d="M83.612,139.809c0.014-0.018,0.03-0.033,0.042-0.051c0.503-0.679-0.053-1.338-0.718-1.439
	c-0.624-0.618-1.795,0.13-1.591,1.083c-2.356,2.569-6.748,4.433-10.084,4.147c-1-0.085-1.218,1.085-0.685,1.686
	c0.445,4.502-1.964,8.224-5.862,10.237c-5.112,2.64-9.144,1.59-12.914-2.704c-1.521-1.732-2.651-3.81-3.488-5.943
	c-1.613-4.113,1.444-6.405,4.084-8.428c2.747-2.103,5.924-2.489,8.742-4.227c0.317-0.195,0.446-0.479,0.463-0.767
	c0.73-0.254,0.892-1.583-0.072-1.969c0.79,0.316,0.43,0.839,0.696,0.034c0.123-0.377,0.3-0.732,0.469-1.089
	c0.415-0.872,0.895-1.712,1.378-2.547c0.745-1.287,1.505-2.674,2.46-3.821c0.165-0.197,0.221-0.413,0.23-0.623
	c0.33-0.537,0.233-1.313-0.551-1.448c-12.001-2.06-24.327,1.729-30.013,13.151c-5.739,11.529-0.895,26.034,8.905,33.604
	c0.032,0.174,0.098,0.346,0.25,0.506c7.524,7.962,20.805,4.15,28.582-1.231C82.307,162.176,87.261,149.672,83.612,139.809z
	 M72.916,166.219c-6.745,5.153-19.439,8.625-26.128,1.551c-0.018-0.02-0.04-0.023-0.058-0.039c-0.05-0.231-0.173-0.453-0.4-0.626
	c-9.821-7.437-13.285-21.135-7.778-32.199c4.733-9.509,15.899-12.468,25.707-11.214c-1.072,1.495-1.984,3.146-2.841,4.742
	c-0.487,0.906-1.625,2.771-1.312,3.996c-2.867,1.762-5.868,2.134-8.73,4.219c-1.994,1.453-4.661,3.311-5.167,5.938
	c-1.118,5.797,3.162,11.365,7.478,14.792c8.062,6.407,19.003-2.791,18.891-11.786c3.322-0.154,7.002-1.833,9.518-4.132
	C84.901,150.365,79.919,160.87,72.916,166.219z"/>
<path fill="#6DBBB7" d="M128.647,97.001c-0.081-0.437-0.382-0.85-0.93-0.92c-2.54-0.326-4.597-1.883-6.946-2.749
	c-2.424-0.894-5.071-1.035-7.353-2.303c-0.156-0.086-0.306-0.122-0.452-0.129c-0.724-4.856-0.611-9.779-1.74-14.583
	c-0.179-0.753-0.93-0.86-1.457-0.566c-0.354-0.381-0.938-0.516-1.375-0.007c-2.044,2.379-4.724,4.136-7.016,6.266
	c-2.566,2.385-5.077,4.826-7.558,7.297c-0.496,0.128-0.915,0.58-0.75,1.22c0.59,2.306,0.596,4.639,0.976,6.973
	c0.443,2.725,1.932,5.187,2.152,7.947c0.002,0.03,0.018,0.05,0.021,0.079c-9.702,7.253-20.064,13.576-29.471,21.23
	c-0.136,0.11-0.224,0.233-0.28,0.358c-0.142,0.156-0.251,0.35-0.27,0.61c-0.121,1.699-0.304,3.395-0.443,5.094
	c-0.006,0.006-0.014,0.008-0.02,0.014c-2.163,2.376-4.768,4.286-6.754,6.825c-1.944,2.488-2.486,5.551-3.126,8.559
	c-0.187,0.876,0.67,1.389,1.317,1.221c0.072,0.563,0.519,1.05,1.194,0.784c5.328-2.093,9.933-6.665,12.919-11.507
	c0.069,0.04,0.127,0.089,0.213,0.114c1.446,0.439,3.016,0.281,4.325-0.481c0.114-0.068,0.193-0.15,0.265-0.236
	c0.178-0.068,0.344-0.189,0.477-0.38c3.388-4.829,7.856-9.29,11.794-13.69c4.06-4.536,8.166-8.86,12.691-12.931
	c0.093,0.054,0.192,0.103,0.321,0.124c3.884,0.647,7.839-0.17,11.702,0.557c0.357,0.325,0.896,0.419,1.308-0.058
	c2.414-2.795,5.438-4.884,8.252-7.243c2.032-1.703,4.978-4.043,6.083-6.505C128.881,97.619,128.815,97.276,128.647,97.001z"/>
<path fill="#5D5D5D" d="M176.979,130.264c-3.644-4.6-9.438-2.913-14.342-2.074c-0.276,0.047-0.458,0.18-0.593,0.34
	c-0.117,0.057-0.233,0.127-0.34,0.239c-3.276,3.487-7.077,6.271-10.609,9.47c-4.017,3.636-7.422,7.955-11.325,11.719
	c-6.312,6.086-14.013,11.977-18.985,19.293c-1.08-0.841-2.014-2.253-2.903-3.211c-1.383-1.491-3.066-2.759-4.682-3.979
	c-4.24-3.203-8.359-6.633-12.359-10.13c-0.115-0.098-0.236-0.156-0.358-0.205c-0.056-0.035-0.091-0.086-0.158-0.115
	c-5.366-2.45-10.132-0.514-13.486,4.199c-1.774,2.49-2.918,4.868-2.881,7.973c0.042,3.348,2.967,5.628,4.364,8.408
	c0.326,0.648,0.968,0.693,1.458,0.419c4.287,4.765,8.854,9.264,13.407,13.771c2.035,2.015,4.341,3.703,6.331,5.772
	c1.879,1.951,3.461,3.915,5.807,5.325c0.316,0.19,0.627,0.21,0.892,0.119c4.616,1.948,9.577,0.267,13.364-2.759
	c0.146-0.048,0.291-0.13,0.428-0.255c8.141-7.39,15.521-15.559,23.592-23.019c8.254-7.631,14.402-17.516,23.476-24.154
	c0.417,0.086,0.872-0.049,1.152-0.527C181.423,141.421,180.883,135.191,176.979,130.264z M155.005,167.119
	c-8.531,8.26-16.826,16.85-25.58,24.878c-0.059,0.04-0.12,0.058-0.178,0.113c-3.237,3.073-8.139,5.401-12.482,3.251
	c-0.229-0.111-0.446-0.127-0.654-0.1c-2.446-1.591-4.157-3.875-6.162-5.96c-1.984-2.062-4.354-3.754-6.392-5.771
	c-4.338-4.294-8.668-8.592-12.726-13.152c-0.326-0.368-0.718-0.415-1.065-0.3c-0.569-0.948-1.224-1.814-1.913-2.715
	c-2.085-2.714-1.885-5.6-0.337-8.479c2.369-4.408,6.677-7.571,11.653-5.3c0.045,0.022,0.088,0.019,0.133,0.032
	c3.698,3.229,7.548,6.275,11.359,9.369c1.909,1.551,3.826,2.967,5.603,4.67c1.45,1.388,2.15,2.972,3.922,3.945
	c0.415,0.228,0.805,0.162,1.113-0.031c0.376,0.025,0.762-0.121,1.025-0.522c5.177-7.975,13.775-14.373,20.579-20.931
	c3.407-3.288,6.431-6.941,9.809-10.26c3.396-3.337,7.332-5.979,10.608-9.471c0.004-0.002,0.004-0.004,0.006-0.006
	c3.417-0.595,7.184-1.87,10.398,0c4.908,2.859,5.184,9.857,2.982,14.486c-0.015,0.008-0.03,0.014-0.046,0.023
	C167.943,150.983,162.557,159.809,155.005,167.119z"/>
<path fill="#6DBBB7" d="M110.682,33.506c-11.153,0.667-32.399-0.254-43.552-0.24c-11.331,0.014-22.615,1.09-33.918-0.204
	c-1.297-0.148-1.282,1.879,0,2.025c11.281,1.292,22.604,0.333,33.918,0.204c11.156-0.128,32.39,0.906,43.552,0.239
	C111.979,35.454,111.987,33.428,110.682,33.506z"/>
<path fill="#6DBBB7" d="M111.583,44.382c-4.445,1.584-11.206,0.168-15.828,0.168H72.716c-7.265,0-14.522,0.297-21.783,0.571
	c-3.65,0.137-7.316,0.417-10.952,0.767c-2.706,0.259-6.114,1.077-8.695-0.12c-1.177-0.546-2.207,1.23-1.022,1.779
	c4.308,1.998,10.141,0.146,14.688-0.134c8.604-0.529,17.227-0.864,25.844-0.864h24.959c4.875,0,11.659,1.329,16.366-0.348
	C113.342,45.767,112.816,43.941,111.583,44.382z"/>
<path fill="#6DBBB7" d="M110.698,57.246c-5.011,1.363-11.001,0.199-16.155,0.171c-6.966-0.037-13.93-0.249-20.888-0.559
	c-13.708-0.612-27.44,1.408-41.108-0.314c-1.293-0.163-1.278,1.865,0,2.025c14.264,1.798,28.684-0.241,43.007,0.398
	c6.958,0.31,13.923,0.448,20.888,0.485c4.854,0.026,10.043,1.038,14.794-0.255C112.494,58.856,111.959,56.902,110.698,57.246z"/>
<path fill="#B29167" d="M81.298,104.716c-0.161,0.556-0.522,1.001-0.921,1.41c-0.912,0.936,0.519,2.368,1.432,1.432
	c0.642-0.658,1.186-1.412,1.44-2.304C83.611,103.997,81.657,103.462,81.298,104.716z"/>
<path fill="#B29167" d="M79.207,103.124c-1.141,2.181-2.845,3.986-4.399,5.871c-0.823,0.998,0.601,2.44,1.432,1.432
	c1.658-2.012,3.498-3.954,4.715-6.279C81.56,102.989,79.812,101.967,79.207,103.124z"/>
<path fill="#B29167" d="M76.453,101.942c-1.313,2.072-2.894,4.045-4.333,6.036c-0.766,1.062,0.992,2.071,1.749,1.022
	c1.441-1.994,3.019-3.962,4.333-6.037C78.902,101.858,77.149,100.841,76.453,101.942z"/>
<path fill="#B29167" d="M73.601,101.015c-1.265,2.067-3.076,3.719-4.406,5.74c-0.72,1.096,1.034,2.108,1.748,1.022
	c1.33-2.021,3.14-3.671,4.407-5.739C76.034,100.921,74.282,99.904,73.601,101.015z"/>
<path fill="#B29167" d="M70.75,100.459c-0.379,0.889-1.447,1.535-2.064,2.281c-0.933,1.125-1.862,2.257-2.814,3.366
	c-0.844,0.987,0.581,2.425,1.433,1.432c0.952-1.109,1.881-2.238,2.814-3.366c0.745-0.902,1.914-1.597,2.38-2.689
	C73.005,100.295,71.261,99.263,70.75,100.459z"/>
<path fill="#B29167" d="M67.159,99.202c-1.522,2.188-3.169,4.282-4.776,6.406c-0.789,1.042,0.971,2.052,1.748,1.022
	c1.607-2.124,3.255-4.219,4.776-6.405C69.654,99.149,67.898,98.138,67.159,99.202z"/>
<path fill="#B29167" d="M63.085,98.98c-0.599,0.968-1.543,1.761-2.192,2.724c-0.827,1.229-1.79,2.364-2.474,3.683
	c-0.601,1.158,1.146,2.183,1.748,1.023c0.617-1.189,1.469-2.202,2.221-3.302c0.745-1.092,1.76-1.995,2.445-3.105
	C65.521,98.888,63.769,97.872,63.085,98.98z"/>
<path fill="#B29167" d="M60.762,97.812c-2.083,2.672-4.354,5.189-6.379,7.907c-0.782,1.048,0.978,2.057,1.748,1.022
	c1.922-2.577,4.087-4.962,6.063-7.498C62.986,98.228,61.564,96.783,60.762,97.812z"/>
<path fill="#B29167" d="M55.531,98.536c-0.881,1.4-2.222,2.556-3.159,3.956c-0.832,1.242-1.783,2.568-2.351,3.951
	c-0.497,1.209,1.464,1.73,1.952,0.538c0.555-1.351,1.631-2.695,2.442-3.91c0.847-1.264,2.06-2.237,2.863-3.513
	C57.977,98.45,56.224,97.435,55.531,98.536z"/>
<path fill="#B29167" d="M51.494,98.424c-0.829,1.565-2.115,2.862-2.994,4.419c-0.825,1.466-1.811,2.843-2.599,4.321
	c-0.614,1.151,1.134,2.177,1.749,1.022c0.791-1.484,1.8-2.834,2.6-4.321c0.852-1.585,2.157-2.843,2.993-4.418
	C53.853,98.294,52.105,97.27,51.494,98.424z"/>
<path fill="#B29167" d="M46.246,100.258c-0.594,1.531-1.715,2.861-2.478,4.316c-0.721,1.371-1.599,2.64-2.346,3.996
	c-0.631,1.146,1.119,2.166,1.748,1.022c0.851-1.545,1.823-3,2.644-4.564c0.76-1.447,1.79-2.697,2.384-4.232
	C48.672,99.578,46.712,99.054,46.246,100.258z"/>
<path fill="#B29167" d="M22.033,161.267c-1.598,3.438-2.724,7.066-4.026,10.621c-0.451,1.23,1.507,1.755,1.952,0.538
	c1.242-3.389,2.3-6.861,3.822-10.137C24.328,161.113,22.583,160.082,22.033,161.267z"/>
<path fill="#B29167" d="M23.932,165.824c-1.517,2.811-2.775,5.775-3.646,8.85c-0.357,1.26,1.598,1.794,1.953,0.538
	c0.826-2.914,2.004-5.703,3.442-8.364C26.301,165.697,24.552,164.675,23.932,165.824z"/>
<path fill="#B29167" d="M26.083,170.887c-1.311,2.126-2.455,4.35-3.797,6.456c-0.705,1.104,1.048,2.118,1.749,1.021
	c1.344-2.105,2.487-4.33,3.797-6.454C28.52,170.794,26.767,169.778,26.083,170.887z"/>
<path fill="#B29167" d="M28.387,174.419c-0.65,1.808-1.973,3.272-3.062,4.822c-0.754,1.07,1.003,2.08,1.748,1.022
	c1.209-1.72,2.548-3.301,3.267-5.307C30.782,173.725,28.824,173.2,28.387,174.419z"/>
<path fill="#B29167" d="M31.812,176.25c-1.831,2.083-2.956,4.718-3.931,7.283c-0.466,1.223,1.493,1.747,1.952,0.538
	c0.844-2.218,1.828-4.587,3.411-6.388C34.103,176.708,32.675,175.268,31.812,176.25z"/>
<path fill="#B29167" d="M35.071,178.736c-1.388,2.024-2.734,4.08-4.272,5.997c-0.809,1.008,0.614,2.45,1.432,1.432
	c1.647-2.054,3.103-4.238,4.589-6.407C37.56,178.676,35.804,177.666,35.071,178.736z"/>
<path fill="#B29167" d="M37.476,181.901c-0.872,1.692-2.052,3.13-3.386,4.477c-0.92,0.93,0.512,2.362,1.432,1.433
	c1.446-1.462,2.757-3.052,3.702-4.888C39.822,181.764,38.074,180.739,37.476,181.901z"/>
<path fill="#B29167" d="M40.261,184.052c-1.269,1.667-2.389,3.423-3.292,5.316c-0.559,1.173,1.187,2.201,1.749,1.022
	c0.902-1.895,2.022-3.649,3.292-5.316C42.801,184.035,41.04,183.028,40.261,184.052z"/>
<path fill="#B29167" d="M44.976,185.365c-1.739,1.733-3.494,3.427-4.969,5.396c-0.784,1.046,0.976,2.053,1.749,1.022
	c1.366-1.823,3.044-3.382,4.652-4.987C47.333,185.875,45.901,184.444,44.976,185.365z"/>
<path fill="#B29167" d="M48.394,185.746c-1.887,1.952-3.177,4.378-5.063,6.329c-0.908,0.939,0.523,2.373,1.432,1.432
	c1.887-1.952,3.177-4.377,5.063-6.329C50.733,186.239,49.303,184.805,48.394,185.746z"/>
<path fill="#B29167" d="M52.902,186.092c-2.5,1.909-3.893,4.652-5.426,7.326c-0.651,1.137,1.098,2.154,1.749,1.023
	c1.328-2.316,2.527-4.938,4.7-6.601C54.947,187.06,53.941,185.3,52.902,186.092z"/>
<path fill="#B29167" d="M56.463,187.469c-1.081,2.499-2.498,4.919-4.399,6.884c-0.908,0.939,0.522,2.373,1.432,1.432
	c2.02-2.087,3.566-4.639,4.715-7.293C58.725,187.305,56.98,186.273,56.463,187.469z"/>
<path fill="#B29167" d="M61.4,187.849c-1.242,2.644-3.059,4.934-4.684,7.342c-0.732,1.086,1.023,2.099,1.749,1.022
	c1.625-2.409,3.442-4.701,4.684-7.342C63.7,187.698,61.955,186.668,61.4,187.849z"/>
<path fill="#B29167" d="M65.831,186.71c-1.902,2.797-3.752,5.629-5.57,8.48c-0.704,1.104,1.049,2.12,1.748,1.022
	c1.819-2.852,3.668-5.684,5.57-8.48C68.315,186.649,66.56,185.636,65.831,186.71z"/>
<path fill="#B29167" d="M69.375,186.204c-1.999,2.951-3.438,6.206-5.063,9.367c-0.596,1.159,1.151,2.184,1.749,1.022
	c1.625-3.16,3.064-6.416,5.063-9.367C71.858,186.141,70.103,185.128,69.375,186.204z"/>
<path fill="#B29167" d="M73.805,184.938c-1.505,2.733-2.375,5.785-4.177,8.354c-0.751,1.072,1.004,2.082,1.749,1.022
	c1.802-2.57,2.672-5.623,4.177-8.354C76.185,184.815,74.435,183.792,73.805,184.938z"/>
<path fill="#B29167" d="M78.615,182.026c-1.905,2.968-3.146,6.336-4.026,9.736c-0.327,1.266,1.625,1.802,1.952,0.538
	c0.839-3.245,2.004-6.421,3.822-9.251C81.072,181.946,79.318,180.931,78.615,182.026z"/>
<path fill="#B29167" d="M82.438,180.243c-0.586,3.558-2.146,6.745-4.076,9.759c-0.707,1.104,1.046,2.118,1.749,1.022
	c2.015-3.146,3.668-6.529,4.279-10.243C84.6,179.505,82.649,178.958,82.438,180.243z"/>
<path fill="#B29167" d="M86.362,177.205c-0.988,3.277-1.858,6.6-2.188,10.016c-0.127,1.3,1.9,1.288,2.025,0
	c0.313-3.228,1.184-6.38,2.115-9.478C88.691,176.489,86.736,175.958,86.362,177.205z"/>
<path fill="#B29167" d="M88.856,179.625c0.063,1.825-0.58,3.517-0.85,5.301c-0.194,1.277,1.757,1.827,1.953,0.538
	c0.297-1.964,0.993-3.827,0.922-5.839C90.836,178.324,88.811,178.32,88.856,179.625z"/>
<path fill="#B29167" d="M91.298,181.762c-0.105,0.46-0.148,0.931-0.253,1.393c-0.29,1.271,1.663,1.811,1.952,0.537
	c0.106-0.461,0.148-0.931,0.253-1.393C93.54,181.028,91.588,180.489,91.298,181.762z"/>
<path fill="#B29167" d="M99.249,124.305c-1.049,1.651-2.455,3.038-3.894,4.352c-0.965,0.884,0.471,2.312,1.433,1.432
	c1.566-1.432,3.067-2.961,4.209-4.761C101.699,124.219,99.946,123.206,99.249,124.305z"/>
<path fill="#B29167" d="M101.178,127.644c-1.668,1.515-3.694,3.117-4.562,5.257c-0.493,1.211,1.467,1.732,1.952,0.538
	c0.344-0.847,1.131-1.564,1.754-2.206c0.731-0.751,1.513-1.451,2.288-2.157C103.579,128.196,102.143,126.767,101.178,127.644z"/>
<path fill="#B29167" d="M103.682,130.548c-1.304-0.326-2.46,1.743-3.094,2.568c-1.024,1.341-2.183,2.771-2.834,4.342
	c-0.503,1.206,1.457,1.727,1.952,0.537c0.338-0.814,1.358-2.12,2.004-3.012c0.433-0.598,0.882-1.186,1.353-1.755
	c0.158-0.192,0.324-0.378,0.492-0.562c0.322-0.348,0.307-0.219,0.058-0.157C104.521,132.313,104.778,130.822,103.682,130.548z"/>
<path fill="#B29167" d="M104.216,134.859c-2.103,2.477-4.373,4.825-5.981,7.675c-0.643,1.139,1.107,2.157,1.749,1.021
	c1.525-2.699,3.671-4.917,5.664-7.265C106.489,135.301,105.063,133.862,104.216,134.859z"/>
<path fill="#B29167" d="M104.975,139.416c-2.525,2.027-4.531,4.644-6.36,7.294c-0.743,1.078,1.013,2.089,1.748,1.023
	c1.737-2.516,3.649-4.963,6.044-6.885C107.426,140.031,105.984,138.607,104.975,139.416z"/>
<path fill="#B29167" d="M105.609,144.479c-1.155,1.039-2.198,2.191-3.292,3.291c-0.921,0.928,0.511,2.36,1.433,1.433
	c1.093-1.101,2.138-2.253,3.291-3.291C108.014,145.037,106.578,143.609,105.609,144.479z"/>
<path fill="#B29167" d="M107.926,148.276c-0.421-0.421-1.001-0.344-1.432,0c-0.633,0.507-1.254,1.02-1.772,1.646
	c-0.35,0.425-0.417,1.014,0,1.432c0.362,0.362,1.08,0.427,1.433,0c0.518-0.627,1.139-1.14,1.771-1.646
	C108.357,149.364,108.285,148.634,107.926,148.276z"/>
<path fill="#B29167" d="M60.166,124.1c-1.735,1.914-3.642,3.665-5.288,5.66c-0.965,1.169-1.657,2.855-2.813,3.833
	c-1,0.844,0.441,2.269,1.432,1.432c1.166-0.983,1.886-2.641,2.814-3.833c1.583-2.038,3.558-3.752,5.288-5.66
	C62.473,124.566,61.045,123.13,60.166,124.1z"/>
<path fill="#B29167" d="M55.356,124.352c-3.69,4.454-7.279,8.991-10.959,13.454c-2.827,3.427-5.849,6.617-7.529,10.791
	c-0.488,1.212,1.471,1.734,1.952,0.538c1.931-4.793,5.972-8.616,9.201-12.567c2.931-3.586,5.812-7.215,8.767-10.783
	C57.614,124.788,56.189,123.345,55.356,124.352z"/>
<path fill="#B29167" d="M48.9,127.771c-4.39,4.418-8.51,9.067-12.31,14.002c-0.797,1.035,0.963,2.042,1.749,1.022
	c3.693-4.796,7.729-9.3,11.993-13.593C51.253,128.276,49.822,126.842,48.9,127.771z"/>
<path fill="#B29167" d="M43.963,129.542c-1.415,1.385-3.064,2.484-4.209,4.13c-0.749,1.073,1.008,2.084,1.749,1.022
	c1.029-1.478,2.619-2.473,3.892-3.721C46.33,130.061,44.897,128.628,43.963,129.542z"/>
<path fill="#B29167" d="M44.185,142.28c-1.758,4.153-6.293,6.677-6.847,11.396c-0.152,1.295,1.875,1.281,2.025,0
	c0.48-4.098,5.009-6.686,6.57-10.374C46.437,142.114,44.692,141.079,44.185,142.28z"/>
<path fill="#B29167" d="M44.849,148.024c-2.039,2.612-3.574,5.639-5.949,7.974c-0.933,0.918,0.5,2.351,1.432,1.433
	c2.386-2.348,3.904-5.354,5.949-7.975C47.075,148.439,45.652,146.995,44.849,148.024z"/>
<path fill="#B29167" d="M46.21,151.773c-1.526,2.862-3.433,5.469-5.317,8.102c-0.763,1.064,0.996,2.073,1.749,1.022
	c1.884-2.633,3.791-5.239,5.316-8.101C48.572,151.642,46.824,150.621,46.21,151.773z"/>
<path fill="#B29167" d="M48.109,155.571c-1.171,2.583-3.346,4.522-4.937,6.836c-0.743,1.078,1.014,2.091,1.749,1.022
	c1.593-2.316,3.763-4.247,4.937-6.835C50.392,155.413,48.646,154.382,48.109,155.571z"/>
<path fill="#B29167" d="M51.305,157.137c-2.059,2.607-3.875,5.388-5.854,8.055c-0.78,1.05,0.979,2.056,1.749,1.021
	c1.876-2.525,3.587-5.174,5.538-7.644C53.537,157.556,52.114,156.113,51.305,157.137z"/>
<path fill="#B29167" d="M53.172,159.622c-1.41,2.555-2.863,5.087-4.557,7.468c-0.76,1.066,0.999,2.077,1.749,1.023
	c1.694-2.381,3.147-4.913,4.557-7.469C55.552,159.499,53.803,158.478,53.172,159.622z"/>
<path fill="#B29167" d="M57.349,160.001c-1.552,3.239-3.85,6.064-5.039,9.481c-0.431,1.236,1.526,1.765,1.952,0.538
	c1.127-3.235,3.362-5.926,4.835-8.997C59.66,159.851,57.913,158.824,57.349,160.001z"/>
<path fill="#B29167" d="M61.171,160.623c-0.942,3.075-2.432,5.901-4.328,8.493c-0.773,1.056,0.986,2.062,1.748,1.022
	c1.999-2.729,3.542-5.742,4.532-8.978C63.507,159.908,61.552,159.377,61.171,160.623z"/>
<path fill="#B29167" d="M65.729,158.597c-0.841,2.159-1.629,4.371-2.655,6.45c-0.822,1.665-1.58,3.226-1.812,5.085
	c-0.163,1.293,1.865,1.277,2.025,0c0.24-1.921,1.342-3.604,2.141-5.331c0.851-1.833,1.521-3.781,2.253-5.666
	C68.155,157.917,66.196,157.394,65.729,158.597z"/>
<path fill="#B29167" d="M73.323,147.205c-1.681,4.956-5.675,15.885-7.215,20.886c-0.386,1.252,1.569,1.782,1.952,0.538
	c1.541-5.001,5.535-15.93,7.215-20.886C75.697,146.502,73.74,145.974,73.323,147.205z"/>
<path fill="#B29167" d="M77.096,145.317c-2.94,6.288-2.458,13.644-5.823,19.748c-0.631,1.143,1.119,2.165,1.749,1.022
	c3.384-6.14,2.882-13.458,5.823-19.747C79.395,145.164,77.649,144.135,77.096,145.317z"/>
<path fill="#B29167" d="M80.033,143.661c-0.801,4.646-2.128,9.175-3.038,13.798c-0.252,1.275,1.7,1.819,1.952,0.538
	c0.912-4.623,2.239-9.152,3.038-13.799C82.205,142.922,80.253,142.375,80.033,143.661z"/>
<path fill="#B29167" d="M42.571,101.188c-1.104,1.071-1.823,2.548-2.563,3.876c-1.256,2.253-3.204,4.215-4.778,6.251
	c-0.788,1.021,0.634,2.464,1.432,1.432c1.407-1.819,2.876-3.59,4.243-5.441c1.093-1.477,1.774-3.399,3.098-4.686
	C44.941,101.709,43.507,100.278,42.571,101.188z"/>
<path fill="#B29167" d="M38.267,103.086c-5.551,6.098-9.979,13.435-14.903,20.05c-5.722,7.686-10.191,16.31-14.749,24.713
	c-0.624,1.147,1.125,2.17,1.748,1.023c3.979-7.336,7.941-14.729,12.584-21.674c2.417-3.615,5.174-7.012,7.795-10.479
	c3.058-4.045,5.526-8.434,8.956-12.202C40.576,103.555,39.148,102.12,38.267,103.086z"/>
<path fill="#B29167" d="M28.773,109.163c-8.17,10.374-12.469,17.623-19.146,29.319c-0.649,1.138,1.053,2.117,1.749,1.022
	c6.955-10.939,10.758-18.663,18.829-28.91C31.004,109.582,29.581,108.138,28.773,109.163z"/>
<path fill="#B29167" d="M20.64,133.925c-1.819,4.019-4.151,8.06-6.668,11.691c-1.306,1.885-3.939,4.568-3.85,7.047
	c0.046,1.304,2.072,1.308,2.025,0c-0.08-2.236,3.244-5.524,4.441-7.29c2.18-3.219,4.2-6.892,5.8-10.426
	C22.922,133.767,21.179,132.737,20.64,133.925z"/>
<path fill="#B29167" d="M19.121,143.545c-1.627,2.14-2.903,4.52-4.412,6.743c-1.437,2.118-2.844,4.221-3.664,6.663
	c-0.417,1.242,1.539,1.771,1.952,0.538c0.849-2.526,2.449-4.688,3.931-6.871c1.354-1.996,2.479-4.128,3.942-6.051
	C21.661,143.528,19.9,142.521,19.121,143.545z"/>
<path fill="#B29167" d="M18.615,150.507c-1.128,1.695-2.268,3.39-3.176,5.216c-0.873,1.757-1.278,3.713-2.615,5.211
	c-0.865,0.972,0.562,2.41,1.432,1.433c1.093-1.227,1.719-2.641,2.322-4.151c0.96-2.409,2.354-4.535,3.786-6.685
	C21.089,150.439,19.335,149.426,18.615,150.507z"/>
<path fill="#B29167" d="M19.628,154.305c-1.899,3.568-3.657,7.202-5.317,10.887c-0.532,1.18,1.212,2.21,1.749,1.021
	c1.66-3.685,3.418-7.319,5.316-10.886C21.989,154.174,20.241,153.152,19.628,154.305z"/>
<path fill="#B29167" d="M20.134,158.736c-1.674,3.327-3.506,6.659-4.153,10.368c-0.223,1.277,1.729,1.823,1.952,0.537
	c0.619-3.544,2.349-6.702,3.949-9.883C22.468,158.593,20.721,157.569,20.134,158.736z"/>
</svg>
